<svg width="18" height="18" viewBox="0 0 18 18" fill="none" xmlns="http://www.w3.org/2000/svg">
<path d="M9 18C13.9706 18 18 13.9706 18 9C18 4.02944 13.9706 0 9 0C4.02944 0 0 4.02944 0 9C0 13.9706 4.02944 18 9 18Z" fill="url(#paint0_linear_525_7782)"/>
<path d="M12.9381 12.5852L9.89482 5.22748C9.72317 4.84707 9.46801 4.6615 9.13167 4.6615H8.8626C8.52626 4.6615 8.27111 4.84707 8.09946 5.22748L6.77497 8.43315H5.77291C5.47368 8.43547 5.23013 8.67671 5.22781 8.97825V8.98521C5.23013 9.28444 5.47368 9.52799 5.77291 9.53031H6.31105L5.04688 12.5852C5.02368 12.6525 5.00977 12.7221 5.00977 12.794C5.00977 12.9656 5.06312 13.1002 5.15822 13.2045C5.25332 13.3089 5.39018 13.36 5.56183 13.36C5.67549 13.3576 5.78451 13.3228 5.87497 13.2556C5.97239 13.1883 6.03966 13.0909 6.09301 12.9795L7.48477 9.52799H8.44971C8.74894 9.52568 8.9925 9.28444 8.99482 8.98289V8.96897C8.9925 8.66975 8.74894 8.42619 8.44971 8.42387H7.93477L8.99714 5.77722L11.892 12.9772C11.9453 13.0886 12.0126 13.186 12.11 13.2533C12.2005 13.3205 12.3118 13.3553 12.4232 13.3576C12.5948 13.3576 12.7294 13.3066 12.8268 13.2022C12.9242 13.0978 12.9752 12.9633 12.9752 12.7917C12.9775 12.7221 12.9659 12.6502 12.9381 12.5852Z" fill="white"/>
<defs>
<linearGradient id="paint0_linear_525_7782" x1="15.7103" y1="3.35381" x2="2.31827" y2="14.6218" gradientUnits="userSpaceOnUse">
<stop stop-color="#B6509E"/>
<stop offset="1" stop-color="#2EBAC6"/>
</linearGradient>
</defs>
</svg>
