<svg width="50" height="50" viewBox="0 0 50 50" fill="none" xmlns="http://www.w3.org/2000/svg">
<path d="M25 50C38.8071 50 50 38.8071 50 25C50 11.1929 38.8071 0 25 0C11.1929 0 0 11.1929 0 25C0 38.8071 11.1929 50 25 50Z" fill="url(#paint0_linear_525_7782)"/>
<path d="M35.9392 34.9589L27.4856 14.5208C27.0088 13.4641 26.3 12.9486 25.3658 12.9486H24.6183C23.6841 12.9486 22.9753 13.4641 22.4985 14.5208L18.8194 23.4254H16.0359C15.2047 23.4319 14.5281 24.102 14.5217 24.9396V24.9589C14.5281 25.7901 15.2047 26.4667 16.0359 26.4731H17.5307L14.0191 34.9589C13.9547 35.1458 13.916 35.3391 13.916 35.5388C13.916 36.0156 14.0642 36.3893 14.3284 36.6793C14.5926 36.9692 14.9727 37.111 15.4495 37.111C15.7652 37.1045 16.0681 37.0079 16.3194 36.821C16.59 36.6342 16.7768 36.3636 16.925 36.0543L20.791 26.4667H23.4714C24.3026 26.4602 24.9792 25.7901 24.9856 24.9525V24.9138C24.9792 24.0826 24.3026 23.4061 23.4714 23.3996H22.041L24.992 16.0478L33.0333 36.0478C33.1815 36.3571 33.3683 36.6277 33.6389 36.8146C33.8902 37.0015 34.1995 37.0981 34.5088 37.1045C34.9856 37.1045 35.3593 36.9628 35.6299 36.6728C35.9005 36.3829 36.0423 36.0092 36.0423 35.5324C36.0487 35.3391 36.0165 35.1393 35.9392 34.9589Z" fill="white"/>
<defs>
<linearGradient id="paint0_linear_525_7782" x1="43.6396" y1="9.31613" x2="6.43964" y2="40.6161" gradientUnits="userSpaceOnUse">
<stop stop-color="#B6509E"/>
<stop offset="1" stop-color="#2EBAC6"/>
</linearGradient>
</defs>
</svg>
