<svg width="84" height="84" viewBox="0 0 84 84" fill="none" xmlns="http://www.w3.org/2000/svg">
<path d="M14.7914 44.625C15.4951 44.625 16.146 44.625 16.7439 44.6453C16.9188 44.6453 17.0897 44.6453 17.2524 44.6819C21.617 45.0236 23.1465 46.7158 24.6922 48.5503C26.5023 50.694 28.467 50.9462 33.3563 55.0789C38.2457 59.2117 36.4844 56.3765 38.0952 61.1805C39.706 65.9844 39.4416 65.9356 36.6756 67.644C33.9095 69.3524 35.6342 71.9029 28.0846 75.7794C25.1396 77.2844 23.3254 77.0688 22.2068 76.2431C21.5542 75.7546 20.8753 75.3024 20.173 74.8885C19.7662 74.6499 19.3472 74.4221 18.9161 74.2052C16.8253 73.1761 14.7874 71.8703 13.9209 70.8046C12.6559 69.2467 12.6437 68.726 11.399 67.823C10.5851 67.2628 9.73737 66.7534 8.86075 66.2976C8.07848 65.9236 7.3987 65.3652 6.87979 64.6705C5.69202 62.9702 6.22083 60.6761 2.32399 54.8755C-1.81691 48.7089 4.56528 45.9592 10.5204 45.0114C11.9345 44.7925 13.361 44.6634 14.7914 44.625Z" fill="#7908FF"/>
<path d="M17.2522 44.7185C21.6168 45.0602 23.1463 46.7524 24.692 48.5869C26.5021 50.7305 28.4709 50.9868 33.3562 55.1196C38.2415 59.2523 36.4842 56.4131 38.095 61.2211C39.7058 66.0291 39.4414 65.9803 36.6754 67.6887C33.9094 69.3971 35.6341 71.9435 28.0844 75.8241C25.1394 77.3291 23.3252 77.1095 22.2107 76.2837C21.559 75.7952 20.88 75.3443 20.1769 74.9332C21.3077 74.2133 22.3815 73.5421 22.9836 73.1353C24.6879 71.9842 25.7659 73.0377 25.4933 69.7592C25.2208 66.4806 21.5273 65.5003 24.8466 64.3898C28.1658 63.2793 25.4689 63.6047 28.9753 63.0637C32.4816 62.5227 36.0245 64.2271 32.5996 60.497C29.1746 56.767 27.9055 58.1052 25.652 55.1806C23.3985 52.2559 25.4364 56.4009 21.5843 49.0425C20.6022 47.2026 19.0939 45.6972 17.2522 44.7185Z" fill="#570DBF"/>
<path d="M14.7914 44.625C15.4951 44.625 16.146 44.625 16.7439 44.6453C17.1792 45.6053 17.3012 46.5531 16.0321 46.4676C13.5101 46.2968 10.7441 46.1544 10.0729 47.4235C9.40175 48.6927 8.12857 49.075 8.38076 51.178C8.63296 53.281 8.03501 51.2919 9.47497 54.3346C10.9149 57.3772 10.6627 59.3053 10.6627 59.3053C10.6627 59.3053 8.07976 57.605 10.4675 60.6313C12.8552 63.6577 15.6253 63.9139 13.6037 65.9193C12.9193 66.6039 12.1821 67.2337 11.399 67.8027C10.5851 67.2425 9.73737 66.7331 8.86075 66.2773C8.07848 65.9032 7.3987 65.3449 6.87979 64.6502C5.69202 62.9499 6.22083 60.6557 2.32399 54.8552C-1.81691 48.6886 4.56528 45.9388 10.5204 44.9911C11.9349 44.779 13.3614 44.6567 14.7914 44.625Z" fill="#843AF9"/>
<path d="M17.4389 68.193C19.5216 66.3992 20.6198 67.9042 20.148 68.3802C19.8795 68.9659 19.2002 69.2751 18.6633 69.6615C18.0857 69.9747 17.6586 70.3571 16.9426 70.475C16.5928 70.532 16.0274 70.2676 16.0112 69.9178C15.9949 69.5679 16.4627 69.0839 17.4389 68.193Z" fill="#3F0A91"/>
<path d="M20.2013 67.9451C20.3093 68.0898 20.374 68.2622 20.3876 68.4423C20.4013 68.6224 20.3635 68.8026 20.2786 68.962C20.0386 69.503 19.4976 69.6494 19.0583 69.8691C18.6719 70 18.2722 70.0873 17.8665 70.1294C18.1309 69.983 18.383 69.8406 18.6596 69.6616C19.1966 69.2549 19.88 68.962 20.1444 68.3803C20.2057 68.244 20.2255 68.0926 20.2013 67.9451Z" fill="#BA9EEF"/>
<path d="M25.7455 58.5364C26.1761 58.3497 26.6574 58.3148 27.1104 58.4375C27.5635 58.5601 27.9614 58.8331 28.2389 59.2117C28.8857 60.0252 28.5481 60.7533 27.5027 60.9486C26.5346 61.1235 25.4241 61.937 24.7692 61.2374C24.216 60.436 24.9523 58.8903 25.7455 58.5364Z" fill="#3F0A91"/>
<path d="M27.7792 58.7764C28.2516 58.9075 28.6756 59.1732 28.9995 59.5411C29.7805 60.3546 29.2232 61.1682 28.186 61.099C27.4091 61.0583 26.6647 61.3431 26.0342 61.4041C26.4979 61.2495 26.9982 61.0787 27.4864 60.9485C28.5318 60.7532 28.8694 60.0048 28.2226 59.2116C28.0955 59.0469 27.9463 58.9004 27.7792 58.7764Z" fill="#BA9EEF"/>
<path d="M12.4726 57.1208C13.3065 56.8971 14.0712 57.3974 14.055 58.0075C14.0387 58.6177 13.575 59.2278 13.0991 59.2278C12.8217 59.2035 12.5525 59.1215 12.3087 58.987C12.0649 58.8525 11.852 58.6685 11.6835 58.4468C11.3133 57.853 11.6225 57.2103 12.4726 57.1208Z" fill="#3F0A91"/>
<path d="M13.949 57.6211C14.0679 57.6661 14.1687 57.7491 14.2356 57.8572C14.3025 57.9654 14.3319 58.0925 14.3192 58.2191C14.2541 58.874 13.7945 59.5329 13.3714 59.5695C13.0419 59.6997 12.6799 59.4231 12.3545 59.0123C12.571 59.1637 12.8308 59.2408 13.0948 59.2319C13.5707 59.2319 14.0426 58.6624 14.0507 58.0116C14.0502 57.875 14.0152 57.7407 13.949 57.6211Z" fill="#BA9EEF"/>
<path d="M15.4543 60.916C15.5588 60.8979 15.6662 60.9106 15.7636 60.9527C15.8609 60.9947 15.9438 61.0642 16.0023 61.1527C16.0607 61.2412 16.092 61.3448 16.0925 61.4508C16.0929 61.5568 16.0624 61.6606 16.0047 61.7496C15.947 61.8385 15.8647 61.9087 15.7677 61.9516C15.6707 61.9944 15.5633 62.0081 15.4587 61.9908C15.3541 61.9736 15.2568 61.9262 15.1787 61.8545C15.1006 61.7828 15.0452 61.6899 15.0191 61.5871C15.0036 61.5145 15.0025 61.4395 15.016 61.3664C15.0294 61.2934 15.0572 61.2237 15.0976 61.1614C15.138 61.099 15.1903 61.0453 15.2515 61.0032C15.3127 60.9611 15.3817 60.9314 15.4543 60.916Z" fill="#3F0A91"/>
<path d="M16.0683 61.1274C16.134 61.1621 16.1918 61.21 16.238 61.2681C16.2842 61.3262 16.3178 61.3933 16.3368 61.4651C16.3523 61.5377 16.3534 61.6127 16.3399 61.6858C16.3264 61.7588 16.2987 61.8285 16.2583 61.8909C16.2179 61.9532 16.1655 62.0069 16.1043 62.049C16.0431 62.0911 15.9742 62.1208 15.9016 62.1362C15.7897 62.165 15.6719 62.1603 15.5627 62.1227C15.4535 62.0851 15.3578 62.0162 15.2874 61.9247C15.4199 61.9944 15.5738 62.0118 15.7185 61.9735C15.7911 61.9581 15.8599 61.9285 15.9209 61.8863C15.9819 61.8441 16.034 61.7903 16.0741 61.7279C16.1142 61.6655 16.1415 61.5957 16.1545 61.5227C16.1675 61.4497 16.1658 61.3748 16.1497 61.3024C16.1335 61.2396 16.106 61.1803 16.0683 61.1274Z" fill="#BA9EEF"/>
<path d="M23.0525 55.1602C23.1407 55.1522 23.2292 55.1713 23.3062 55.2149C23.3833 55.2585 23.4452 55.3246 23.4837 55.4043C23.5569 55.5751 23.3983 55.6443 23.1908 55.689C22.9834 55.7338 22.784 55.8192 22.7393 55.5914C22.7309 55.4939 22.7579 55.3966 22.8155 55.3174C22.873 55.2382 22.9572 55.1824 23.0525 55.1602Z" fill="#3F0A91"/>
<path d="M23.4228 55.3108C23.5079 55.3501 23.5769 55.4176 23.618 55.502C23.6912 55.681 23.4838 55.7176 23.2967 55.7135C23.1095 55.7094 23.0079 55.8071 22.8899 55.7501C22.9854 55.7403 23.0796 55.7198 23.1706 55.6891C23.378 55.6443 23.5367 55.5752 23.4634 55.4044C23.4547 55.3713 23.441 55.3397 23.4228 55.3108Z" fill="#BA9EEF"/>
<path d="M19.0905 55.9412C19.1505 55.9304 19.2123 55.9375 19.2684 55.9613C19.3244 55.9852 19.3723 56.0249 19.4062 56.0756C19.44 56.1263 19.4583 56.1858 19.4588 56.2467C19.4594 56.3077 19.4421 56.3674 19.4092 56.4187C19.3763 56.47 19.3291 56.5106 19.2735 56.5354C19.2178 56.5603 19.1561 56.5684 19.096 56.5588C19.0358 56.5491 18.9797 56.522 18.9347 56.481C18.8896 56.4399 18.8575 56.3866 18.8423 56.3276C18.8328 56.2859 18.8317 56.2428 18.839 56.2006C18.8464 56.1585 18.8621 56.1182 18.8852 56.0822C18.9083 56.0463 18.9384 56.0152 18.9736 55.991C19.0089 55.9668 19.0486 55.9498 19.0905 55.9412Z" fill="#3F0A91"/>
<path d="M19.4406 56.0632C19.4793 56.0822 19.5133 56.1095 19.54 56.1433C19.5668 56.1771 19.5856 56.2165 19.5952 56.2585C19.6041 56.2999 19.6048 56.3427 19.5972 56.3843C19.5895 56.426 19.5737 56.4657 19.5506 56.5013C19.5276 56.5368 19.4977 56.5674 19.4628 56.5914C19.4278 56.6153 19.3885 56.6321 19.3471 56.6408C19.2826 56.6588 19.2143 56.6567 19.1511 56.635C19.0879 56.6132 19.0328 56.5727 18.9932 56.5188C19.0306 56.5397 19.0718 56.5529 19.1144 56.5578C19.157 56.5627 19.2001 56.5591 19.2413 56.5473C19.2828 56.5386 19.3221 56.5218 19.357 56.4978C19.392 56.4739 19.4218 56.4432 19.4449 56.4077C19.4679 56.3722 19.4838 56.3324 19.4914 56.2907C19.499 56.2491 19.4984 56.2063 19.4894 56.1649C19.4816 56.1276 19.4649 56.0927 19.4406 56.0632Z" fill="#BA9EEF"/>
<path d="M18.5211 58.7032C18.6635 58.5446 19.0215 58.6219 19.3143 58.8822C19.6072 59.1425 19.7211 59.4802 19.595 59.6429C19.4689 59.8056 19.0947 59.7242 18.7815 59.4639C18.4682 59.2036 18.3788 58.8659 18.5211 58.7032Z" fill="#3F0A91"/>
<path d="M19.1111 58.7358C19.2847 58.7766 19.4445 58.8622 19.5748 58.984C19.8717 59.2403 19.9816 59.5819 19.8514 59.7446C19.7212 59.9073 19.5016 59.8504 19.2616 59.7121C19.3183 59.7312 19.3791 59.7348 19.4377 59.7227C19.4963 59.7105 19.5507 59.683 19.5951 59.643C19.7375 59.4802 19.5951 59.1386 19.3145 58.8823C19.2524 58.826 19.1842 58.7768 19.1111 58.7358Z" fill="#BA9EEF"/>
<path d="M21.8934 63.7349C21.9641 63.7115 22.0412 63.7167 22.1081 63.7494C22.175 63.7821 22.2265 63.8397 22.2514 63.9099C22.2631 63.9832 22.2453 64.0582 22.2019 64.1184C22.1584 64.1787 22.0928 64.2192 22.0195 64.2312C21.9848 64.2471 21.9471 64.2553 21.9089 64.255C21.8707 64.2548 21.833 64.2461 21.7986 64.2296C21.7641 64.2132 21.7337 64.1894 21.7095 64.1598C21.6852 64.1303 21.6678 64.0958 21.6584 64.0588C21.649 64.0218 21.6479 63.9832 21.655 63.9457C21.6622 63.9082 21.6776 63.8727 21.7 63.8418C21.7225 63.8109 21.7514 63.7853 21.7848 63.7668C21.8183 63.7484 21.8553 63.7375 21.8934 63.7349Z" fill="#3F0A91"/>
<path d="M22.2106 63.8245C22.2436 63.8389 22.2728 63.8607 22.2961 63.8882C22.3194 63.9157 22.336 63.9482 22.3448 63.9831C22.3565 64.0565 22.3387 64.1314 22.2953 64.1917C22.2518 64.2519 22.1862 64.2925 22.1129 64.3044C22.057 64.321 21.9975 64.3214 21.9414 64.3055C21.8852 64.2897 21.8347 64.2583 21.7957 64.215C21.8681 64.2401 21.9469 64.2401 22.0194 64.215C22.0927 64.203 22.1582 64.1624 22.2017 64.1022C22.2452 64.042 22.263 63.967 22.2512 63.8936C22.2423 63.8682 22.2285 63.8446 22.2106 63.8245Z" fill="#BA9EEF"/>
<path d="M10.9146 53.4924C10.9639 53.4894 11.013 53.5004 11.0562 53.5242C11.0995 53.548 11.135 53.5836 11.1588 53.6269C11.1826 53.6701 11.1935 53.7192 11.1905 53.7685C11.1874 53.8177 11.1704 53.8651 11.1414 53.9051C11.1124 53.945 11.0727 53.9759 11.0269 53.9942C10.981 54.0124 10.9309 54.0172 10.8824 54.0081C10.8339 53.999 10.789 53.9762 10.7529 53.9425C10.7169 53.9088 10.6911 53.8656 10.6787 53.8178C10.6681 53.7436 10.6867 53.6681 10.7308 53.6074C10.7748 53.5466 10.8407 53.5054 10.9146 53.4924Z" fill="#3F0A91"/>
<path d="M11.2317 53.5862C11.2645 53.6009 11.2936 53.6228 11.3169 53.6502C11.3401 53.6777 11.3569 53.71 11.3659 53.7448C11.3777 53.8182 11.3599 53.8932 11.3164 53.9534C11.273 54.0136 11.2074 54.0542 11.1341 54.0662C11.0772 54.0831 11.0166 54.0832 10.9597 54.0666C10.9027 54.05 10.8517 54.0174 10.8127 53.9726C10.8849 53.9994 10.9643 53.9994 11.0365 53.9726C11.11 53.9606 11.1759 53.9202 11.22 53.8601C11.2642 53.8 11.283 53.725 11.2724 53.6513C11.263 53.6272 11.2492 53.6052 11.2317 53.5862Z" fill="#BA9EEF"/>
<path d="M15.9178 48.7578C17.3252 48.7049 18.4926 49.5306 18.5293 50.5964C18.5659 51.6621 17.4595 52.5692 16.052 52.6302C14.6446 52.6912 13.4772 51.8574 13.4406 50.7916C13.404 49.7259 14.5144 48.8066 15.9178 48.7578Z" fill="#3F0A91"/>
<path d="M18.3422 49.9211C18.5758 50.0669 18.7714 50.2661 18.9129 50.5023C19.0543 50.7386 19.1376 51.005 19.1558 51.2798C19.1924 52.3455 18.0819 53.2526 16.6745 53.3136C16.2003 53.3609 15.7221 53.2774 15.2919 53.0724C14.8617 52.8673 14.4958 52.5484 14.2339 52.1502C14.7655 52.4937 15.3915 52.6616 16.0237 52.6302C17.427 52.5814 18.5375 51.6743 18.5009 50.5964C18.5014 50.362 18.4471 50.1307 18.3422 49.9211Z" fill="#BA9EEF"/>
<path d="M10.5201 45.0237C10.0889 45.3816 9.42588 45.7721 8.53506 46.5206C6.81443 47.9768 7.5222 47.0006 4.46737 48.3714C1.41254 49.7422 4.49178 49.0792 4.36568 50.1368C4.23958 51.1944 3.63757 51.3571 3.35283 52.4716C3.06809 53.5862 3.55214 53.159 4.19483 54.058C4.83753 54.9569 5.16294 55.1522 5.45175 57.0722C5.74055 58.9921 5.67954 58.9962 5.74869 59.5575C5.81784 60.1188 7.16831 61.4815 7.35136 62.9866C7.39995 63.5906 7.23117 64.1922 6.87543 64.6828C5.68767 62.9825 6.21648 60.6883 2.31964 54.8878C-1.8172 48.7212 4.565 45.9715 10.5201 45.0237Z" fill="#A973FF"/>
<path d="M55.633 0.380853L12.5444 8.74527C11.4613 8.95553 10.7537 10.004 10.964 11.0872L24.737 82.0379C24.9473 83.121 25.9958 83.8286 27.0789 83.6183L70.1674 75.2539C71.2506 75.0437 71.9582 73.9952 71.7479 72.912L57.9749 1.96133C57.7646 0.878197 56.7161 0.170594 55.633 0.380853Z" fill="url(#paint0_linear_10364_13042)"/>
<path d="M63.0655 28.1798C58.9975 26.6282 54.5758 26.2489 50.3029 27.0851C37.6274 29.5457 29.3467 41.8156 31.8075 54.4922C34.2683 67.1688 46.5383 75.4495 59.2138 72.9889C63.4892 72.1653 67.4478 70.1588 70.6397 67.1975L63.0655 28.1798Z" fill="#F7ADC3"/>
<path d="M50.548 50.8348C48.7081 48.4539 47.0297 45.7423 44.2141 44.4707C39.3953 42.2852 32.6024 44.9457 28.7651 41.4458C26.4367 39.3257 26.3482 35.8802 25.4638 32.9223C23.8461 27.5172 18.865 23.2717 13.0979 22.0632L19.0129 52.5337C20.5387 52.8741 22.099 53.035 23.6621 53.0132C25.2612 52.9859 26.9186 52.7781 28.4137 53.3438C30.6017 54.1763 32.245 56.578 34.5822 56.4411C36.4221 56.3356 37.8507 54.6307 39.6841 54.4353C41.9521 54.1936 43.713 56.2567 45.6999 57.3724C47.7389 58.5213 50.1777 58.701 52.518 58.6524C54.5819 58.6099 56.6397 58.4107 58.6735 58.0563C55.4497 56.2695 52.7572 53.6929 50.548 50.8348Z" fill="#4D008C"/>
<path d="M27.0792 83.6194L70.1667 75.2552C70.6871 75.1541 71.1461 74.8505 71.4427 74.4111C71.7392 73.9717 71.8491 73.4324 71.748 72.912L68.3377 55.344C67.2292 55.5961 66.1491 56.0173 65.0699 56.3927C61.0298 57.7999 56.7936 58.5633 52.5164 58.655C50.1764 58.7046 47.7376 58.525 45.6984 57.375C43.7106 56.2551 41.9508 54.1972 39.6825 54.4379C37.8492 54.6332 36.4206 56.3382 34.5806 56.4437C32.2451 56.5781 30.6019 54.1764 28.4141 53.3449C26.9188 52.7782 25.2614 52.986 23.6623 53.0133C22.0993 53.0358 20.5392 52.8756 19.0134 52.5359L24.7403 82.0373C24.8412 82.5569 25.1441 83.0154 25.5826 83.312C26.0211 83.6086 26.5593 83.7192 27.0792 83.6194Z" fill="#4D008C"/>
<path style="mix-blend-mode:multiply" d="M50.548 50.8348C48.7081 48.4539 47.0297 45.7423 44.2141 44.4707C39.3953 42.2852 32.6024 44.9457 28.7651 41.4458C26.4367 39.3257 26.3482 35.8802 25.4638 32.9223C23.8461 27.5172 18.865 23.2717 13.0979 22.0632L19.0129 52.5337C20.5387 52.8741 22.099 53.035 23.6621 53.0132C25.2612 52.9859 26.9186 52.7781 28.4137 53.3438C30.6017 54.1763 32.245 56.578 34.5822 56.4411C36.4221 56.3356 37.8507 54.6307 39.6841 54.4353C41.9521 54.1936 43.713 56.2567 45.6999 57.3724C47.7389 58.5213 50.1777 58.701 52.518 58.6524C54.5819 58.6099 56.6397 58.4107 58.6735 58.0563C55.4497 56.2695 52.7572 53.6929 50.548 50.8348Z" fill="url(#paint1_linear_10364_13042)"/>
<path style="mix-blend-mode:multiply" d="M27.0792 83.6194L70.1667 75.2552C70.6871 75.1541 71.1461 74.8505 71.4427 74.4111C71.7392 73.9717 71.8491 73.4324 71.748 72.912L68.3377 55.344C67.2292 55.5961 66.1491 56.0173 65.0699 56.3927C61.0298 57.7999 56.7936 58.5633 52.5164 58.655C50.1764 58.7046 47.7376 58.525 45.6984 57.375C43.7106 56.2551 41.9508 54.1972 39.6825 54.4379C37.8492 54.6332 36.4206 56.3382 34.5806 56.4437C32.2451 56.5781 30.6019 54.1764 28.4141 53.3449C26.9188 52.7782 25.2614 52.986 23.6623 53.0133C22.0993 53.0358 20.5392 52.8756 19.0134 52.5359L24.7403 82.0373C24.8412 82.5569 25.1441 83.0154 25.5826 83.312C26.0211 83.6086 26.5593 83.7192 27.0792 83.6194Z" fill="url(#paint2_linear_10364_13042)"/>
<path d="M59.9619 69.6306L59.8664 74.6262L58.6276 74.8667L58.7231 69.8711L59.9619 69.6306ZM65.7896 71.7103L66.0935 69.7833L66.8193 71.5104L65.7896 71.7103ZM67.5048 73.1412L68.6547 72.918L66.7163 68.3194L65.6562 68.5252C65.5429 68.5459 65.4385 68.6003 65.3565 68.6813C65.2745 68.7622 65.2187 68.8659 65.1965 68.9789L64.1975 73.7854L65.5001 73.5326L65.6203 72.7661L67.2125 72.4571L67.5048 73.1412ZM63.9596 72.2022C63.7197 70.9329 61.95 71.2049 61.8519 70.6381C61.8182 70.4646 61.951 70.249 62.2963 70.1331C62.7084 70.0132 63.1452 70.0056 63.5612 70.111L63.581 69.0506C63.1829 68.9854 62.7763 68.9909 62.38 69.0668C61.1548 69.3046 60.4158 70.125 60.5973 71.0596C60.7228 71.7512 61.4218 72.0158 61.9369 72.1545C62.452 72.2931 62.6566 72.414 62.6966 72.6253C62.7589 72.9463 62.3997 73.1635 62.0442 73.238C61.6025 73.3344 61.1435 73.3155 60.7112 73.1832L60.6894 74.2723C61.0049 74.3499 61.5623 74.3599 62.1188 74.2595C63.4224 74.0064 64.1505 73.1968 63.9602 72.1999L63.9596 72.2022ZM58.191 69.9744L57.1117 75.1609L55.7997 75.4156L54.0666 71.7795C53.9601 71.555 53.8914 71.4805 53.6906 71.4186C53.2649 71.3078 52.827 71.2503 52.3871 71.2475L52.3896 71.1038L54.5013 70.6939C54.6394 70.6669 54.7826 70.6901 54.9051 70.7594C55.0276 70.8288 55.1212 70.9396 55.1692 71.0719L56.2306 73.746L56.8863 70.2276L58.191 69.9744Z" fill="white"/>
<path fill-rule="evenodd" clip-rule="evenodd" d="M50.1227 18.0261C50.0688 18.0162 50.0181 17.9931 49.9753 17.9588C49.9325 17.9245 49.8988 17.8801 49.8774 17.8296C49.8521 17.7662 49.8557 17.7178 49.9182 17.5147C50.1557 16.7483 50.1944 15.9341 50.0306 15.1486C49.8939 14.3918 49.5717 13.6805 49.0929 13.0786C49.0159 12.983 48.9465 12.8815 48.8854 12.775C48.8809 12.7265 48.8868 12.6775 48.9028 12.6314C48.9187 12.5853 48.9442 12.5431 48.9777 12.5076C49.0253 12.4672 49.0837 12.4416 49.1456 12.434C49.2076 12.4265 49.2704 12.4372 49.3263 12.4649C49.412 12.5416 49.4896 12.6268 49.558 12.7193C49.9253 13.1934 50.2142 13.7233 50.4137 14.2889C50.5599 14.7389 50.6577 15.2032 50.7054 15.674C50.7469 16.2795 50.6887 16.8878 50.5331 17.4745C50.4384 17.8303 50.3661 17.9832 50.2835 17.9992C50.2634 18.0036 50.244 18.0107 50.2257 18.0202C50.191 18.0298 50.1548 18.0328 50.119 18.029L50.1227 18.0261ZM48.9458 17.6742C48.8732 17.6653 48.8065 17.6301 48.7581 17.5754C48.7097 17.5206 48.683 17.4501 48.683 17.377C48.6876 17.3446 48.724 17.1911 48.7664 17.0354C48.9438 16.3993 48.9413 15.7265 48.759 15.0917C48.6359 14.6356 48.4203 14.2096 48.1256 13.8403C47.9065 13.5498 47.8894 13.501 47.9552 13.3537C47.9943 13.2839 48.0594 13.2323 48.1363 13.2101C48.2131 13.1878 48.2957 13.1968 48.3661 13.2349C48.4595 13.2916 48.8046 13.7562 48.9541 14.0287C49.4549 14.9305 49.6092 15.9841 49.3882 16.9917C49.2731 17.5163 49.161 17.6932 48.9456 17.6732L48.9458 17.6742ZM47.7327 17.3207C47.6847 17.3081 47.6401 17.2851 47.602 17.2533C47.564 17.2215 47.5334 17.1817 47.5125 17.1367C47.4892 17.0837 47.4984 17.019 47.5602 16.7955C47.7848 15.9741 47.6487 15.2509 47.1448 14.5883C46.9225 14.2984 46.9068 14.2342 47.0171 14.0815C47.0342 14.05 47.0591 14.0234 47.0893 14.0041C47.1195 13.9847 47.154 13.9733 47.1898 13.9709C47.3466 13.9405 47.4425 14.0043 47.6382 14.2636C47.9242 14.6304 48.1156 15.0619 48.1956 15.52C48.2945 15.9761 48.2744 16.45 48.1373 16.896C48.0573 17.1882 48.0061 17.2708 47.8781 17.3152C47.8304 17.3287 47.7802 17.3307 47.7316 17.3209L47.7327 17.3207ZM46.5984 16.993C46.5112 16.966 46.4379 16.9064 46.3936 16.8267C46.35 16.7418 46.3573 16.6677 46.4264 16.4818C46.4953 16.2762 46.5098 16.0563 46.4684 15.8434C46.4271 15.6305 46.3314 15.432 46.1906 15.2671C46.1405 15.2129 46.0951 15.1546 46.0548 15.0927C46.0256 15.0192 46.0267 14.937 46.0579 14.8643C46.0892 14.7915 46.1479 14.7341 46.2214 14.7046C46.3503 14.6535 46.4528 14.6955 46.6135 14.8639C46.8414 15.1066 46.996 15.4089 47.0594 15.7357C47.1229 16.0626 47.0926 16.4007 46.9721 16.7111C46.8842 16.9288 46.7575 17.025 46.5931 16.994L46.5984 16.993Z" fill="white"/>
<path d="M42.4084 12.3524L37.8829 13.2309C37.4729 13.3105 37.2051 13.7073 37.2847 14.1172L38.5908 20.8455C38.6704 21.2554 39.0672 21.5232 39.4771 21.4436L44.0027 20.5651C44.4126 20.4855 44.6804 20.0887 44.6009 19.6788L43.2948 12.9506C43.2152 12.5406 42.8184 12.2728 42.4084 12.3524Z" fill="white"/>
<path d="M18.0831 15.1573L18.0957 15.1549C18.2412 14.709 18.5892 14.4559 19.0429 14.3678L19.2666 14.3244L19.4827 15.4378C19.3158 15.3883 19.1386 15.3852 18.97 15.4288C18.3261 15.5538 18.2491 16.0124 18.3581 16.5738L18.6146 17.8952L17.4532 18.1207L16.8176 14.8465L17.979 14.621L18.0831 15.1573Z" fill="#4D008C"/>
<path d="M21.0372 14.0262L19.8757 14.2517L20.5115 17.527L21.673 17.3015L21.0372 14.0262Z" fill="#4D008C"/>
<path d="M23.1448 14.0023L23.1584 13.9996C23.3042 13.6329 23.6718 13.4031 24.0544 13.3289C25.0308 13.1393 25.8667 13.8243 26.049 14.7631C26.2312 15.7018 25.7159 16.6296 24.7448 16.8181C24.5568 16.8606 24.3619 16.8629 24.173 16.8248C23.984 16.7867 23.8053 16.7091 23.6485 16.597L23.9967 18.3909L22.9265 19.1085L21.9073 13.8585L23.0688 13.633L23.1448 14.0023ZM23.3537 15.2798C23.4349 15.6979 23.7697 15.9584 24.2422 15.8666C24.7147 15.7749 24.9278 15.4027 24.8476 14.9898C24.8029 14.7979 24.6855 14.6308 24.5202 14.5237C24.3548 14.4166 24.1544 14.3777 23.961 14.4152C23.7676 14.4528 23.5963 14.5638 23.483 14.725C23.3698 14.8863 23.3235 15.0851 23.3537 15.2798Z" fill="#4D008C"/>
<path d="M27.5074 12.7704L26.3459 12.9958L26.9817 16.2711L28.1432 16.0456L27.5074 12.7704Z" fill="#4D008C"/>
<path d="M32.3566 13.5321C32.5721 14.6423 31.776 15.4532 30.7222 15.6578C29.6684 15.8623 28.6288 15.4132 28.4123 14.2978C28.1957 13.1823 28.9948 12.3698 30.0402 12.1669C31.0856 11.964 32.1347 12.4112 32.3524 13.5329L32.3566 13.5321ZM29.6343 14.0606C29.7155 14.4787 30.0503 14.7392 30.5228 14.6475C30.9953 14.5557 31.2084 14.1835 31.1282 13.7706C31.0835 13.5787 30.9661 13.4117 30.8008 13.3045C30.6354 13.1974 30.435 13.1585 30.2416 13.196C30.0482 13.2336 29.8769 13.3446 29.7637 13.5058C29.6504 13.6671 29.6041 13.8659 29.6343 14.0606Z" fill="#4D008C"/>
<path d="M20.8585 13.1162L19.8121 13.7945L19.6021 12.7125L20.6506 12.0338L20.8585 13.1162Z" fill="#4D008C"/>
<path d="M27.3168 11.8623L26.2704 12.5406L26.0603 11.4586L27.1088 10.7799L27.3168 11.8623Z" fill="#4D008C"/>
<g style="mix-blend-mode:multiply" opacity="0.6">
<g style="mix-blend-mode:multiply" opacity="0.6">
<path d="M18.0831 15.1573L18.0957 15.1549C18.2412 14.709 18.5892 14.4559 19.0429 14.3678L19.2666 14.3244L19.4827 15.4378C19.3158 15.3883 19.1386 15.3852 18.97 15.4288C18.3261 15.5538 18.2491 16.0124 18.3581 16.5738L18.6146 17.8952L17.4532 18.1207L16.8176 14.8465L17.979 14.621L18.0831 15.1573Z" fill="#231F20"/>
</g>
<g style="mix-blend-mode:multiply" opacity="0.6">
<path d="M21.0374 14.026L19.876 14.2515L20.5118 17.5267L21.6732 17.3013L21.0374 14.026Z" fill="#231F20"/>
</g>
<g style="mix-blend-mode:multiply" opacity="0.6">
<path d="M23.1448 14.0018L23.1584 13.9992C23.3042 13.6324 23.6718 13.4027 24.0544 13.3284C25.0308 13.1388 25.8667 13.8238 26.049 14.7626C26.2312 15.7013 25.7159 16.6291 24.7448 16.8176C24.5568 16.8602 24.3619 16.8625 24.173 16.8243C23.984 16.7862 23.8053 16.7086 23.6485 16.5965L23.9967 18.3904L22.9265 19.108L21.9073 13.858L23.0688 13.6325L23.1448 14.0018ZM23.3537 15.2793C23.4349 15.6974 23.7697 15.9579 24.2422 15.8662C24.7147 15.7744 24.9278 15.4022 24.8476 14.9893C24.8029 14.7974 24.6855 14.6304 24.5202 14.5232C24.3548 14.4161 24.1544 14.3772 23.961 14.4147C23.7676 14.4523 23.5963 14.5633 23.483 14.7246C23.3698 14.8858 23.3235 15.0846 23.3537 15.2793Z" fill="#231F20"/>
</g>
<g style="mix-blend-mode:multiply" opacity="0.6">
<path d="M27.5074 12.7701L26.3459 12.9956L26.9817 16.2709L28.1432 16.0454L27.5074 12.7701Z" fill="#231F20"/>
</g>
<g style="mix-blend-mode:multiply" opacity="0.6">
<path d="M32.3566 13.5319C32.5721 14.6421 31.776 15.4529 30.7222 15.6575C29.6684 15.8621 28.6288 15.413 28.4123 14.2976C28.1957 13.1821 28.9948 12.3696 30.0402 12.1667C31.0856 11.9637 32.1347 12.411 32.3524 13.5327L32.3566 13.5319ZM29.6343 14.0603C29.7155 14.4785 30.0503 14.7389 30.5228 14.6472C30.9953 14.5555 31.2084 14.1833 31.1282 13.7703C31.0835 13.5785 30.9661 13.4114 30.8008 13.3043C30.6354 13.1971 30.435 13.1583 30.2416 13.1958C30.0482 13.2333 29.8769 13.3444 29.7637 13.5056C29.6504 13.6668 29.6041 13.8656 29.6343 14.0603Z" fill="#231F20"/>
</g>
<g style="mix-blend-mode:multiply" opacity="0.6">
<path d="M20.8583 13.1158L19.8119 13.794L19.6018 12.712L20.6503 12.0334L20.8583 13.1158Z" fill="#231F20"/>
</g>
<g style="mix-blend-mode:multiply" opacity="0.6">
<path d="M27.317 11.8621L26.2706 12.5404L26.0606 11.4584L27.1091 10.7797L27.317 11.8621Z" fill="#231F20"/>
</g>
</g>
<path d="M73.7734 17.1353C74.0695 17.7917 74.0529 18.4757 74.5181 19.2903C74.5383 19.327 74.5604 19.3638 74.5825 19.3988C75.4559 20.8183 74.0842 20.7723 72.6573 23.5782C71.2305 26.3841 72.1057 24.8212 70.8609 26.3712C69.6161 27.9213 69.6547 27.8257 67.735 28.6458C65.8154 29.4658 66.128 29.3095 64.8096 29.0356C63.4912 28.7616 62.5057 29.4419 60.7865 28.5538C59.0672 27.6657 60.2771 27.7834 59.8505 26.7151C59.424 25.6468 59.3265 25.6799 57.9971 25.325L57.9456 25.3103C56.6806 24.9334 57.1862 23.558 56.9104 22.2415C56.7413 21.4398 57.1513 20.7024 57.5043 20.2427C57.7391 19.9369 57.9366 19.6042 58.0927 19.2517C58.1442 19.1358 58.1902 19.0182 58.2325 18.8986C58.3792 18.4569 58.5587 18.0266 58.7694 17.6115C59.1151 16.9955 59.321 16.58 59.9039 15.7121L60.0657 15.4712C60.7699 14.4342 61.6543 14.2209 64.4143 13.2519C67.1742 12.2829 67.3195 14.4452 68.978 14.1179C70.6366 13.7906 70.6605 14.6971 72.5102 15.8279C72.7356 15.9624 72.9479 16.1176 73.1446 16.2913C73.4116 16.5249 73.626 16.8126 73.7734 17.1353Z" fill="#A170E8"/>
<path d="M64.0722 22.4861C64.1845 22.6301 64.251 22.8047 64.2628 22.987C64.2746 23.1693 64.2313 23.351 64.1384 23.5083C64.0456 23.6657 63.9076 23.7915 63.7423 23.8693C63.577 23.9472 63.3921 23.9734 63.2117 23.9448C63.0312 23.9161 62.8636 23.8338 62.7306 23.7085C62.5976 23.5833 62.5053 23.4209 62.4658 23.2425C62.4264 23.0641 62.4415 22.878 62.5092 22.7083C62.577 22.5387 62.6942 22.3933 62.8457 22.2912C63.0348 22.156 63.2694 22.1007 63.4989 22.1372C63.7284 22.1737 63.9343 22.299 64.0722 22.4861Z" fill="#493684"/>
<path d="M64.0299 23.4752C63.9798 23.7134 63.8386 23.9226 63.6364 24.0581C63.5431 24.1259 63.4373 24.1747 63.3252 24.2017C63.213 24.2286 63.0966 24.2331 62.9827 24.215C62.8688 24.1969 62.7596 24.1565 62.6613 24.0961C62.563 24.0358 62.4776 23.9566 62.4099 23.8632C62.3136 23.7139 62.2659 23.5384 62.2735 23.3609C62.2811 23.1834 62.3435 23.0126 62.4522 22.8721C62.4279 22.9803 62.4258 23.0923 62.4461 23.2013C62.4663 23.3103 62.5084 23.4141 62.5699 23.5064C62.6375 23.5999 62.723 23.679 62.8212 23.7394C62.9195 23.7998 63.0288 23.8402 63.1427 23.8583C63.2566 23.8764 63.373 23.8719 63.4851 23.8449C63.5973 23.818 63.7031 23.7692 63.7963 23.7013C63.887 23.6404 63.9661 23.5638 64.0299 23.4752Z" fill="#BA9EEF"/>
<path d="M72.8539 18.8231C72.9311 18.9151 72.8539 19.1173 72.67 19.235C72.6207 19.2626 72.5664 19.28 72.5102 19.2862C72.454 19.2925 72.3972 19.2874 72.343 19.2713C72.2889 19.2551 72.2385 19.2283 72.1948 19.1924C72.1512 19.1565 72.1152 19.1122 72.089 19.0622C71.9419 18.8268 72.0007 18.5988 72.2563 18.6246C72.4707 18.6305 72.6786 18.6996 72.8539 18.8231Z" fill="#493684"/>
<path d="M72.7767 19.1469C72.7421 19.2435 72.6777 19.3266 72.5928 19.3841C72.5486 19.4189 72.4971 19.4431 72.4422 19.4548C72.3872 19.4666 72.3303 19.4656 72.2758 19.4519C72.2213 19.4383 72.1706 19.4123 72.1277 19.376C72.0848 19.3397 72.0508 19.294 72.0283 19.2425C71.9106 19.0587 71.8959 18.8288 72.0154 18.7498C72.0052 18.8039 72.0061 18.8595 72.0181 18.9133C72.0301 18.967 72.053 19.0177 72.0853 19.0623C72.1115 19.1124 72.1475 19.1567 72.1912 19.1926C72.2348 19.2285 72.2852 19.2553 72.3393 19.2714C72.3935 19.2875 72.4503 19.2926 72.5065 19.2864C72.5627 19.2802 72.617 19.2628 72.6663 19.2352C72.7074 19.2116 72.7446 19.1818 72.7767 19.1469Z" fill="#BA9EEF"/>
<path d="M65.5117 18.873C65.6606 19.0752 65.6845 19.3823 65.5117 19.4779C65.3389 19.5735 64.9895 19.3253 64.6769 18.8491C64.3643 18.3728 64.3092 18.0014 64.642 18.1908C64.9688 18.3668 65.2629 18.5976 65.5117 18.873Z" fill="#493684"/>
<path d="M65.6058 19.3876C65.6165 19.4423 65.6135 19.4987 65.5971 19.552C65.5808 19.6052 65.5515 19.6536 65.512 19.6928C65.3594 19.8142 65.0468 19.6322 64.7176 19.1265C64.4639 18.7404 64.315 18.3377 64.4216 18.2715C64.472 18.4786 64.5619 18.674 64.6864 18.847C64.999 19.3232 65.3502 19.566 65.5212 19.4759C65.5586 19.4569 65.5884 19.4258 65.6058 19.3876Z" fill="#BA9EEF"/>
<path d="M70.1364 20.7429C70.2835 21.4967 70.0334 22.1807 69.5848 22.269C69.1361 22.3573 68.6397 21.8185 68.4926 21.0665C68.3455 20.3144 68.5956 19.6304 69.0534 19.5403C69.5112 19.4502 69.9893 19.9908 70.1364 20.7429Z" fill="#493684"/>
<path d="M69.8513 22.1238C69.8203 22.2498 69.7564 22.3652 69.6664 22.4586C69.5763 22.5519 69.4631 22.6197 69.3383 22.6552C68.8805 22.7453 68.3914 22.2065 68.2443 21.4527C68.1284 20.868 68.2553 20.3255 68.5311 20.0718C68.4274 20.3933 68.4109 20.7366 68.4833 21.0665C68.6304 21.8186 69.1195 22.3536 69.5755 22.2691C69.6795 22.2482 69.7753 22.1977 69.8513 22.1238Z" fill="#BA9EEF"/>
<path d="M68.4759 19.0053C68.5016 19.1432 68.4556 19.2682 68.3729 19.2848C68.2902 19.3013 68.2001 19.202 68.1743 19.0641C68.1486 18.9262 68.1927 18.803 68.2755 18.7865C68.3582 18.7699 68.4483 18.8692 68.4759 19.0053Z" fill="#493684"/>
<path d="M68.4226 19.257C68.4172 19.2802 68.4056 19.3015 68.3891 19.3187C68.3726 19.3358 68.3518 19.3482 68.3288 19.3545C68.2461 19.3711 68.156 19.2736 68.1302 19.1357C68.118 19.0927 68.1163 19.0473 68.1253 19.0035C68.1343 18.9596 68.1536 18.9186 68.1817 18.8838C68.165 18.9439 68.165 19.0075 68.1817 19.0677C68.2075 19.2056 68.2976 19.3049 68.3803 19.2883C68.397 19.2821 68.4117 19.2712 68.4226 19.257Z" fill="#BA9EEF"/>
<path d="M67.8967 19.9082C67.9114 19.9799 67.8875 20.0442 67.8433 20.0534C67.7992 20.0626 67.7532 20.0111 67.7385 19.9376C67.7238 19.864 67.7385 19.8015 67.7919 19.7923C67.8452 19.7831 67.882 19.8346 67.8967 19.9082Z" fill="#493684"/>
<path d="M67.8691 20.0405C67.8661 20.0525 67.86 20.0635 67.8512 20.0722C67.8425 20.081 67.8315 20.0872 67.8195 20.0901C67.7772 20.0901 67.7294 20.0479 67.7147 19.9761C67.7089 19.9534 67.7084 19.9297 67.7132 19.9068C67.718 19.8838 67.7279 19.8623 67.7423 19.8438C67.7342 19.8745 67.7342 19.9068 67.7423 19.9375C67.757 20.0111 67.8029 20.0626 67.8471 20.0534C67.8552 20.0505 67.8627 20.0461 67.8691 20.0405Z" fill="#BA9EEF"/>
<path d="M60.4003 23.0761C60.4279 23.1113 60.4444 23.154 60.4474 23.1987C60.4504 23.2434 60.4399 23.2879 60.4172 23.3265C60.3945 23.3651 60.3607 23.3959 60.3202 23.415C60.2797 23.4341 60.2344 23.4405 60.1902 23.4334C60.146 23.4263 60.1049 23.406 60.0724 23.3753C60.0399 23.3445 60.0175 23.3046 60.008 23.2608C59.9985 23.2171 60.0024 23.1715 60.0193 23.13C60.0361 23.0885 60.0651 23.0531 60.1024 23.0283C60.1485 22.9961 60.2054 22.9831 60.261 22.992C60.3166 23.0009 60.3665 23.0311 60.4003 23.0761Z" fill="#493684"/>
<path d="M62.8164 19.5826C62.8467 19.6307 62.8567 19.6888 62.8443 19.7443C62.8319 19.7997 62.798 19.848 62.7501 19.8786C62.7275 19.8953 62.7018 19.9073 62.6746 19.9139C62.6473 19.9205 62.6189 19.9216 62.5912 19.9172C62.5635 19.9127 62.5369 19.9028 62.513 19.888C62.4892 19.8732 62.4685 19.8537 62.4523 19.8308C62.4194 19.782 62.4072 19.7222 62.4184 19.6644C62.4296 19.6067 62.4633 19.5557 62.512 19.5228C62.5608 19.4899 62.6207 19.4777 62.6784 19.4889C62.7362 19.5001 62.7871 19.5338 62.82 19.5826H62.8164Z" fill="#493684"/>
<path d="M62.8072 19.8309C62.7952 19.8889 62.7609 19.9398 62.7116 19.9725C62.689 19.9892 62.6633 20.0012 62.636 20.0078C62.6087 20.0144 62.5803 20.0155 62.5526 20.0111C62.5249 20.0066 62.4983 19.9967 62.4745 19.9819C62.4506 19.9671 62.43 19.9476 62.4137 19.9247C62.39 19.8886 62.3781 19.846 62.3798 19.8028C62.3814 19.7596 62.3965 19.718 62.4229 19.6838C62.4171 19.7102 62.4168 19.7375 62.4218 19.7641C62.4269 19.7906 62.4372 19.8159 62.4523 19.8383C62.4686 19.8612 62.4892 19.8806 62.5131 19.8955C62.5369 19.9103 62.5635 19.9202 62.5912 19.9247C62.6189 19.9291 62.6473 19.928 62.6746 19.9214C62.7019 19.9148 62.7276 19.9028 62.7502 19.8861C62.7722 19.8711 62.7915 19.8524 62.8072 19.8309Z" fill="#BA9EEF"/>
<path d="M62.1947 20.6859C62.2009 20.6949 62.2052 20.7051 62.2074 20.7158C62.2097 20.7265 62.2097 20.7376 62.2077 20.7484C62.2056 20.7591 62.2015 20.7694 62.1955 20.7785C62.1895 20.7877 62.1817 20.7956 62.1727 20.8017C62.1636 20.8079 62.1534 20.8122 62.1427 20.8144C62.132 20.8166 62.1209 20.8167 62.1102 20.8147C62.0994 20.8126 62.0892 20.8085 62.08 20.8025C62.0709 20.7965 62.063 20.7887 62.0568 20.7796C62.0457 20.7613 62.0422 20.7393 62.047 20.7184C62.0518 20.6974 62.0646 20.6792 62.0826 20.6675C62.0911 20.6612 62.1008 20.6566 62.1111 20.6541C62.1214 20.6516 62.1321 20.6512 62.1426 20.6529C62.153 20.6546 62.163 20.6584 62.172 20.6641C62.181 20.6697 62.1887 20.6772 62.1947 20.6859Z" fill="#493684"/>
<path d="M62.1911 20.7723C62.1867 20.7939 62.1742 20.813 62.1562 20.8257C62.1475 20.832 62.1377 20.8366 62.1272 20.8392C62.1168 20.8417 62.1059 20.8421 62.0953 20.8404C62.0847 20.8387 62.0745 20.8349 62.0654 20.8292C62.0563 20.8235 62.0484 20.816 62.0422 20.8073C62.0328 20.7938 62.0278 20.7777 62.0278 20.7613C62.0278 20.7449 62.0328 20.7288 62.0422 20.7153C62.0398 20.7254 62.0395 20.7358 62.0414 20.7459C62.0433 20.7561 62.0473 20.7657 62.0532 20.7742C62.0594 20.7829 62.0673 20.7904 62.0764 20.7961C62.0856 20.8018 62.0957 20.8056 62.1063 20.8073C62.1169 20.809 62.1278 20.8086 62.1383 20.8061C62.1487 20.8035 62.1585 20.7989 62.1672 20.7926L62.1911 20.7723Z" fill="#BA9EEF"/>
<path d="M72.6572 23.6278C71.2322 26.4337 72.1056 24.8726 70.8608 26.4226C69.616 27.9727 69.6546 27.8771 67.735 28.6953C65.8153 29.5135 66.1279 29.3609 64.8095 29.0851C63.4912 28.8093 62.5074 29.4915 60.7864 28.6052C59.0653 27.7189 60.2771 27.8348 59.8505 26.7665C59.4239 25.6982 59.3264 25.7331 57.997 25.3782C57.9795 25.3738 57.9623 25.3683 57.9456 25.3617C58.2453 24.9222 58.624 24.4736 59.2327 24.9829C60.0619 25.6779 59.81 25.8067 60.8232 25.928C61.8363 26.0494 60.6393 25.7074 61.9577 25.3488C63.276 24.9903 63.1676 26.3288 63.5519 26.772C63.9361 27.2151 64.2414 29.8555 65.0394 26.7315C65.8374 23.6075 65.9735 22.8022 65.9735 22.8022C65.9735 22.8022 66.2787 21.5279 66.8928 22.0961C67.507 22.6643 67.0914 23.1129 67.7294 23.7509C68.3675 24.389 68.715 24.286 69.4045 23.4549C70.0941 22.6238 70.0187 22.4749 70.8884 21.6842C71.7581 20.8936 70.7045 20.5074 72.7639 20.2224C73.4994 20.1176 74.051 19.726 74.5199 19.3435C74.5401 19.3803 74.5622 19.4152 74.5842 19.452C75.4558 20.8696 74.0841 20.82 72.6572 23.6278Z" fill="#7253AD"/>
<path d="M73.7991 17.1922C73.4786 17.0311 73.1223 16.9545 72.7639 16.9697C71.0557 16.9366 71.8004 17.6739 70.9601 18.4205C70.1198 19.167 69.1563 19.4502 68.5146 18.3929C67.8729 17.3356 67.4812 18.3359 66.9921 17.8928C66.503 17.4496 65.9183 18.0674 65.4494 17.1462C64.9805 16.225 64.9364 16.7583 64.0318 17.1665C63.1271 17.5747 62.9414 17.9369 62.3346 18.6191C61.7278 19.3012 61.5568 18.8563 60.8838 17.9461C60.2109 17.0359 59.7401 18.4977 59.457 18.6816C59.1738 18.8654 58.9642 19.1744 58.2122 19.3159C58.2636 19.2001 58.3096 19.0843 58.3519 18.9647C58.4985 18.5229 58.6779 18.0926 58.8888 17.6776C59.2327 17.0617 59.4404 16.6479 60.0233 15.7782C60.073 15.7028 60.1281 15.6219 60.1851 15.5392C60.8875 14.5003 61.7719 14.2888 64.5337 13.318C67.2955 12.3471 67.4389 14.5113 69.0975 14.184C70.756 13.8567 70.7781 14.7632 72.6297 15.8959C72.855 16.0304 73.0674 16.1855 73.264 16.3593C73.506 16.5905 73.6894 16.876 73.7991 17.1922Z" fill="#A67FDD"/>
<path d="M73.264 16.363C72.2068 16.6756 71.6092 16.7896 71.4529 16.4734C71.2377 16.0505 70.7321 15.9898 69.7171 15.8684C68.7021 15.7471 68.932 15.2561 68.0218 14.9215C67.1897 14.5791 66.2956 14.4131 65.3961 14.4342C64.4602 14.4673 64.0556 14.9215 63.5187 15.3223C62.9818 15.7232 61.4318 16.5267 60.9445 16.1939C60.6062 15.9622 60.369 15.7379 60.0251 15.7802C60.0748 15.7048 60.13 15.6239 60.187 15.5411C60.8894 14.5023 61.7738 14.2908 64.5356 13.3199C67.2973 12.3491 67.4408 14.5133 69.0993 14.186C70.7578 13.8587 70.7799 14.7652 72.6315 15.8979C72.8563 16.033 73.068 16.1887 73.264 16.363Z" fill="#BA9EEF"/>
<defs>
<linearGradient id="paint0_linear_10364_13042" x1="17.2634" y1="77.6991" x2="65.4493" y2="6.29887" gradientUnits="userSpaceOnUse">
<stop offset="0.2" stop-color="#F7ADC3"/>
<stop offset="0.52" stop-color="#FACEDB"/>
<stop offset="0.82" stop-color="#FCE6EC"/>
<stop offset="1" stop-color="#FDEFF3"/>
</linearGradient>
<linearGradient id="paint1_linear_10364_13042" x1="39.0508" y1="30.8651" x2="30.2483" y2="56.4069" gradientUnits="userSpaceOnUse">
<stop stop-color="#231F20" stop-opacity="0.4"/>
<stop offset="0.41" stop-color="#231F20" stop-opacity="0.17"/>
<stop offset="1" stop-color="#231F20" stop-opacity="0"/>
</linearGradient>
<linearGradient id="paint2_linear_10364_13042" x1="45.2118" y1="52.0856" x2="45.7497" y2="83.3286" gradientUnits="userSpaceOnUse">
<stop stop-color="#231F20" stop-opacity="0.6"/>
<stop offset="0.53" stop-color="#231F20" stop-opacity="0.34"/>
<stop offset="1" stop-color="#231F20" stop-opacity="0"/>
</linearGradient>
</defs>
</svg>
