<svg width="76" height="84" viewBox="0 0 76 84" fill="none" xmlns="http://www.w3.org/2000/svg">
<path d="M38.2608 79.645C59.067 79.645 75.9338 62.7782 75.9338 41.972C75.9338 21.1658 59.067 4.29907 38.2608 4.29907C17.4546 4.29907 0.587891 21.1658 0.587891 41.972C0.587891 62.7782 17.4546 79.645 38.2608 79.645Z" fill="#C5759C"/>
<path fill-rule="evenodd" clip-rule="evenodd" d="M62.5686 71.1604C56.0492 76.5595 47.681 79.8045 38.555 79.8045C29.0678 79.8045 20.3997 76.2976 13.7763 70.5095L13.5206 69.2917L9.07915 48.1019L6.89458 37.6902C6.76619 37.0542 6.89436 36.3932 7.25116 35.8512C7.60795 35.3092 8.16445 34.9302 8.79944 34.7967L50.6101 26.0295C51.2454 25.901 51.9058 26.0285 52.4476 26.3843C52.9895 26.7401 53.369 27.2955 53.5035 27.9296L62.5686 71.1604Z" fill="#AE4E7D"/>
<path d="M51.3631 0.50563L9.57834 9.26538C8.24632 9.54462 7.39288 10.8508 7.67212 12.1828L22.2222 81.5882C22.5015 82.9202 23.8077 83.7736 25.1397 83.4944L66.9245 74.7346C68.2565 74.4554 69.1099 73.1492 68.8307 71.8172L54.2806 2.41185C54.0014 1.07983 52.6952 0.226385 51.3631 0.50563Z" fill="url(#paint0_linear_10123_13383)"/>
<path d="M59.6439 27.8861C55.7497 26.4727 51.5487 26.1256 47.4753 26.8805C43.402 27.6355 39.6044 29.4651 36.4754 32.1801C33.3464 34.8951 30.9997 38.3968 29.6781 42.323C28.3564 46.2492 28.1078 50.4573 28.958 54.5118C29.8083 58.5662 31.7264 62.3199 34.514 65.3844C37.3016 68.4489 40.8574 70.7129 44.8135 71.9422C48.7696 73.1714 52.9823 73.3213 57.0158 72.3762C61.0492 71.4312 64.7569 69.4256 67.7552 66.5669L59.6439 27.8861Z" fill="#F7ADC3"/>
<path d="M47.5343 50.6186C45.668 48.2797 43.9609 45.6081 41.1446 44.3783C36.3221 42.2757 29.6045 45.0245 25.7128 41.6006C23.3642 39.5269 23.2244 36.103 22.3033 33.1758C20.6154 27.8277 15.5953 23.6804 9.84692 22.5664L16.1836 52.7839C17.706 53.097 19.2595 53.2329 20.8132 53.1889C22.4046 53.1359 24.049 52.9044 25.544 53.4445C27.7334 54.2354 29.4019 56.6032 31.7215 56.4393C33.5541 56.3042 34.9478 54.5874 36.7658 54.3656C39.0179 54.0907 40.7974 56.1113 42.7939 57.1964C44.7904 58.2814 47.2643 58.4502 49.5935 58.3682C51.6445 58.2906 53.6868 58.0601 55.7035 57.6786C52.5292 55.9046 49.7496 53.5024 47.5343 50.6186Z" fill="#4D008C"/>
<path d="M25.1527 83.4648L66.9392 74.7024C67.5786 74.5744 68.141 74.1976 68.5027 73.655C68.8645 73.1124 68.9959 72.4484 68.8682 71.8089L65.314 54.8532C64.2177 55.1586 63.1391 55.5241 62.083 55.9479C58.0869 57.4054 53.887 58.2271 49.6362 58.3832C47.307 58.4652 44.8813 58.3253 42.8366 57.2114C40.7919 56.0974 39.0606 54.1057 36.8085 54.3806C34.9905 54.6024 33.5968 56.3096 31.7643 56.4542C29.4447 56.6182 27.7761 54.2504 25.5867 53.4595C24.0917 52.9194 22.4473 53.1509 20.8559 53.2039C19.3021 53.2503 17.7484 53.1143 16.2263 52.7988L22.264 81.5792C22.4019 82.2096 22.782 82.7606 23.3224 83.1133C23.8627 83.4661 24.5201 83.5923 25.1527 83.4648Z" fill="#4D008C"/>
<path style="mix-blend-mode:multiply" d="M47.5343 50.6186C45.668 48.2797 43.9609 45.6081 41.1446 44.3783C36.3221 42.2757 29.6045 45.0245 25.7128 41.6006C23.3642 39.5269 23.2244 36.103 22.3033 33.1758C20.6154 27.8277 15.5953 23.6804 9.84692 22.5664L16.1836 52.7839C17.706 53.097 19.2595 53.2329 20.8132 53.1889C22.4046 53.1359 24.049 52.9044 25.544 53.4445C27.7334 54.2354 29.4019 56.6032 31.7215 56.4393C33.5541 56.3042 34.9478 54.5874 36.7658 54.3656C39.0179 54.0907 40.7974 56.1113 42.7939 57.1964C44.7904 58.2814 47.2643 58.4502 49.5935 58.3682C51.6445 58.2906 53.6868 58.0601 55.7035 57.6786C52.5292 55.9046 49.7496 53.5024 47.5343 50.6186Z" fill="url(#paint1_linear_10123_13383)"/>
<path style="mix-blend-mode:multiply" d="M25.1527 83.4648L66.9392 74.7024C67.5786 74.5744 68.141 74.1976 68.5027 73.655C68.8645 73.1124 68.9959 72.4484 68.8682 71.8089L65.314 54.8532C64.2177 55.1586 63.1391 55.5241 62.083 55.9479C58.0869 57.4054 53.887 58.2271 49.6362 58.3832C47.307 58.4652 44.8813 58.3253 42.8366 57.2114C40.7919 56.0974 39.0606 54.1057 36.8085 54.3806C34.9905 54.6024 33.5968 56.3096 31.7643 56.4542C29.4447 56.6182 27.7761 54.2504 25.5867 53.4595C24.0917 52.9194 22.4473 53.1509 20.8559 53.2039C19.3021 53.2503 17.7484 53.1143 16.2263 52.7988L22.264 81.5792C22.4019 82.2096 22.782 82.7606 23.3224 83.1133C23.8627 83.4661 24.5201 83.5923 25.1527 83.4648Z" fill="url(#paint2_linear_10123_13383)"/>
<path d="M57.1792 69.1611V74.1331L55.9495 74.3887V69.4216L57.1792 69.1611ZM62.9951 71.148L63.27 69.219L64.0174 70.9262L62.9951 71.148ZM64.7215 72.5417L65.8596 72.3054L63.8728 67.7578L62.8215 67.9797C62.7085 68.0012 62.6047 68.0566 62.5237 68.1383C62.4428 68.2201 62.3885 68.3245 62.3682 68.4378L61.4471 73.2168L62.7395 72.9468L62.8456 72.18L64.4274 71.8521L64.7215 72.5417ZM61.1867 71.664C60.9262 70.4102 59.1709 70.6995 59.0696 70.1449C59.0359 69.9713 59.1612 69.7543 59.5036 69.6338C59.9119 69.508 60.3463 69.4931 60.7623 69.5904V68.539C60.3651 68.4774 59.9601 68.4872 59.5663 68.568C58.3511 68.8236 57.6373 69.6482 57.8206 70.5789C57.9556 71.2637 58.6549 71.5145 59.1661 71.6447C59.6772 71.7749 59.8894 71.8955 59.928 72.1028C59.9955 72.4211 59.6435 72.643 59.2914 72.7201C58.8537 72.822 58.3972 72.8104 57.9653 72.6864V73.7762C58.4453 73.8563 58.9362 73.8449 59.412 73.7425C60.7044 73.4724 61.4133 72.6526 61.2108 71.664H61.1867ZM55.4239 69.5325L54.4256 74.7021L53.1284 74.977L51.3489 71.3891C51.3215 71.3018 51.2721 71.2231 51.2053 71.1606C51.1386 71.0981 51.0568 71.0538 50.9679 71.0323C50.5439 70.9256 50.1078 70.8753 49.6707 70.8828V70.7381L51.7636 70.2993C51.9007 70.2695 52.044 70.2902 52.1671 70.3575C52.2902 70.4249 52.3849 70.5343 52.4339 70.6657L53.5286 73.3085L54.1314 69.8025L55.4239 69.5325Z" fill="white"/>
<path d="M14.7227 15.6277C14.7865 15.4214 14.9073 15.2373 15.0711 15.0965C15.2349 14.9558 15.4351 14.8641 15.6486 14.832L15.8705 14.7886L16.1019 15.8929C15.9361 15.8478 15.7613 15.8478 15.5956 15.8929C14.9542 16.0279 14.8867 16.4861 15.0024 17.0407L15.2773 18.3524L14.1247 18.5935L13.4592 15.348L14.6118 15.1069L14.7227 15.6277Z" fill="#4D008C"/>
<path d="M17.6309 14.4824L16.4792 14.7239L17.16 17.9711L18.3116 17.7297L17.6309 14.4824Z" fill="#4D008C"/>
<path d="M19.7381 14.3832C19.8176 14.2054 19.9398 14.0499 20.0937 13.9304C20.2476 13.811 20.4286 13.7313 20.6206 13.6984C20.8441 13.6562 21.0738 13.659 21.2961 13.7068C21.5185 13.7545 21.7291 13.8462 21.9156 13.9765C22.102 14.1068 22.2605 14.273 22.3818 14.4654C22.5031 14.6578 22.5847 14.8725 22.6219 15.0969C22.6784 15.3155 22.6904 15.5433 22.657 15.7666C22.6237 15.99 22.5458 16.2043 22.4279 16.3969C22.31 16.5895 22.1546 16.7564 21.9708 16.8876C21.7871 17.0189 21.5788 17.1118 21.3584 17.1609C21.1716 17.2053 20.9776 17.2098 20.7889 17.1741C20.6003 17.1383 20.4213 17.0632 20.2637 16.9536L20.6351 18.733L19.5838 19.4612L18.4939 14.2578L19.6465 14.0167L19.7381 14.3832ZM19.9647 15.6515C20.0139 15.8394 20.1334 16.0012 20.2985 16.1034C20.4635 16.2057 20.6616 16.2406 20.8517 16.201C21.0418 16.1614 21.2094 16.0502 21.3199 15.8905C21.4303 15.7308 21.4752 15.5347 21.4452 15.3429C21.3961 15.155 21.2766 14.9932 21.1115 14.891C20.9464 14.7887 20.7484 14.7538 20.5583 14.7934C20.3682 14.833 20.2006 14.9442 20.0901 15.1039C19.9796 15.2636 19.9347 15.4597 19.9647 15.6515Z" fill="#4D008C"/>
<path d="M24.0469 13.1372L22.8953 13.3787L23.576 16.6259L24.7277 16.3845L24.0469 13.1372Z" fill="#4D008C"/>
<path d="M28.8915 13.7997C29.123 14.8993 28.3418 15.7287 27.3001 15.9361C26.2585 16.1435 25.212 15.7239 24.9805 14.6196C24.749 13.5152 25.5254 12.6906 26.5719 12.4736C27.6184 12.2566 28.66 12.6906 28.8915 13.7997ZM26.1958 14.3833C26.2247 14.5305 26.2968 14.6659 26.4029 14.7721C26.509 14.8783 26.6443 14.9506 26.7915 14.9798C26.9387 15.009 27.0913 14.9937 27.2299 14.936C27.3684 14.8782 27.4867 14.7806 27.5697 14.6555C27.6526 14.5304 27.6965 14.3835 27.6958 14.2334C27.695 14.0832 27.6497 13.9367 27.5655 13.8125C27.4813 13.6882 27.362 13.5917 27.2229 13.5354C27.0838 13.479 26.9311 13.4653 26.7841 13.4959C26.6846 13.5103 26.5893 13.5455 26.5044 13.5993C26.4195 13.6531 26.3469 13.7241 26.2913 13.8079C26.2358 13.8917 26.1986 13.9862 26.1821 14.0854C26.1656 14.1845 26.1703 14.286 26.1958 14.3833Z" fill="#4D008C"/>
<path d="M17.452 13.5586L16.42 14.2482L16.1934 13.1776L17.2302 12.488L17.452 13.5586Z" fill="#4D008C"/>
<path d="M23.8566 12.2182L22.8246 12.9078L22.5979 11.8324L23.6299 11.1428L23.8566 12.2182Z" fill="#4D008C"/>
<g style="mix-blend-mode:multiply" opacity="0.6">
<g style="mix-blend-mode:multiply" opacity="0.6">
<path d="M14.7227 15.6277C14.7865 15.4214 14.9073 15.2373 15.0711 15.0965C15.2349 14.9558 15.4351 14.8641 15.6486 14.832L15.8705 14.7886L16.1019 15.8929C15.9361 15.8478 15.7613 15.8478 15.5956 15.8929C14.9542 16.0279 14.8867 16.4861 15.0024 17.0407L15.2773 18.3524L14.1247 18.5935L13.4592 15.348L14.6118 15.1069L14.7227 15.6277Z" fill="#221F1F"/>
</g>
<g style="mix-blend-mode:multiply" opacity="0.6">
<path d="M17.6311 14.4827L16.4795 14.7241L17.1602 17.9714L18.3119 17.7299L17.6311 14.4827Z" fill="#221F1F"/>
</g>
<g style="mix-blend-mode:multiply" opacity="0.6">
<path d="M19.7381 14.3834C19.8176 14.2056 19.9398 14.0501 20.0937 13.9307C20.2476 13.8113 20.4286 13.7316 20.6206 13.6987C20.8441 13.6564 21.0738 13.6592 21.2961 13.707C21.5185 13.7548 21.7291 13.8465 21.9156 13.9768C22.102 14.107 22.2605 14.2733 22.3818 14.4657C22.5031 14.6581 22.5847 14.8728 22.6219 15.0972C22.6784 15.3158 22.6904 15.5435 22.657 15.7669C22.6237 15.9902 22.5458 16.2045 22.4279 16.3971C22.31 16.5897 22.1546 16.7566 21.9708 16.8879C21.7871 17.0191 21.5788 17.1121 21.3584 17.1612C21.1716 17.2056 20.9776 17.21 20.7889 17.1743C20.6003 17.1386 20.4213 17.0634 20.2637 16.9538L20.6351 18.7333L19.5838 19.4615L18.4939 14.2581L19.6465 14.0169L19.7381 14.3834ZM19.9647 15.6518C20.0139 15.8396 20.1334 16.0014 20.2985 16.1037C20.4635 16.2059 20.6616 16.2409 20.8517 16.2012C21.0418 16.1616 21.2094 16.0504 21.3199 15.8907C21.4303 15.731 21.4752 15.535 21.4452 15.3431C21.3961 15.1553 21.2766 14.9935 21.1115 14.8912C20.9464 14.7889 20.7484 14.754 20.5583 14.7936C20.3682 14.8333 20.2006 14.9444 20.0901 15.1041C19.9796 15.2638 19.9347 15.4599 19.9647 15.6518Z" fill="#221F1F"/>
</g>
<g style="mix-blend-mode:multiply" opacity="0.6">
<path d="M24.0472 13.1375L22.8955 13.3789L23.5763 16.6262L24.7279 16.3847L24.0472 13.1375Z" fill="#221F1F"/>
</g>
<g style="mix-blend-mode:multiply" opacity="0.6">
<path d="M28.8908 13.8002C29.1223 14.8998 28.341 15.7292 27.2994 15.9366C26.2577 16.1439 25.2113 15.7244 24.9798 14.62C24.7483 13.5157 25.5247 12.6911 26.5712 12.4741C27.6177 12.2571 28.6593 12.6911 28.8908 13.8002ZM26.195 14.3837C26.224 14.531 26.2961 14.6664 26.4022 14.7726C26.5083 14.8788 26.6435 14.9511 26.7908 14.9803C26.938 15.0095 27.0906 14.9942 27.2292 14.9365C27.3677 14.8787 27.486 14.7811 27.5689 14.656C27.6519 14.5309 27.6958 14.3839 27.695 14.2338C27.6943 14.0837 27.649 13.9372 27.5648 13.813C27.4806 13.6887 27.3613 13.5922 27.2222 13.5359C27.0831 13.4795 26.9303 13.4658 26.7834 13.4964C26.6839 13.5108 26.5886 13.546 26.5037 13.5998C26.4187 13.6535 26.3461 13.7246 26.2906 13.8084C26.2351 13.8922 26.1978 13.9867 26.1814 14.0859C26.1649 14.185 26.1695 14.2865 26.195 14.3837Z" fill="#221F1F"/>
</g>
<g style="mix-blend-mode:multiply" opacity="0.6">
<path d="M17.4525 13.5589L16.4205 14.2485L16.1938 13.1779L17.2307 12.4883L17.4525 13.5589Z" fill="#221F1F"/>
</g>
<g style="mix-blend-mode:multiply" opacity="0.6">
<path d="M23.8568 12.2185L22.8248 12.9081L22.5981 11.8327L23.6301 11.1431L23.8568 12.2185Z" fill="#221F1F"/>
</g>
</g>
<defs>
<linearGradient id="paint0_linear_10123_13383" x1="14.9357" y1="77.6908" x2="61.5729" y2="6.31296" gradientUnits="userSpaceOnUse">
<stop offset="0.2" stop-color="#F7ADC3"/>
<stop offset="0.52" stop-color="#FACEDB"/>
<stop offset="0.82" stop-color="#FCE6EC"/>
<stop offset="1" stop-color="#FDEFF3"/>
</linearGradient>
<linearGradient id="paint1_linear_10123_13383" x1="35.7702" y1="30.9606" x2="27.3949" y2="56.4905" gradientUnits="userSpaceOnUse">
<stop stop-color="#221F1F" stop-opacity="0.4"/>
<stop offset="0.4" stop-color="#221F1F" stop-opacity="0.18"/>
<stop offset="1" stop-color="#221F1F" stop-opacity="0"/>
</linearGradient>
<linearGradient id="paint2_linear_10123_13383" x1="42.1693" y1="51.9696" x2="43.1662" y2="82.9552" gradientUnits="userSpaceOnUse">
<stop stop-color="#221F1F" stop-opacity="0.6"/>
<stop offset="0.54" stop-color="#221F1F" stop-opacity="0.34"/>
<stop offset="1" stop-color="#221F1F" stop-opacity="0"/>
</linearGradient>
</defs>
</svg>
