<svg width="18" height="18" viewBox="0 0 18 18" fill="none" xmlns="http://www.w3.org/2000/svg">
<path d="M9 18C13.9707 18 18 13.9707 18 9C18 4.0293 13.9707 0 9 0C4.0293 0 0 4.0293 0 9C0 13.9707 4.0293 18 9 18Z" fill="#070A0E"/>
<path fill-rule="evenodd" clip-rule="evenodd" d="M5.19943 12.0193C4.93033 11.8546 4.76562 11.5621 4.76562 11.2471V9.48846C4.76562 9.27966 4.93572 9.11046 5.14452 9.11136C5.21112 9.11136 5.27683 9.12937 5.33443 9.16267L9.30253 11.4766C9.53473 11.6116 9.67783 11.86 9.67783 12.1291V13.9507C9.67873 14.2009 9.47623 14.4043 9.22603 14.4043C9.14233 14.4043 9.05953 14.3809 8.98843 14.3377L5.19943 12.0193ZM11.1142 8.68116C11.3464 8.81616 11.4886 9.06547 11.4895 9.33367V13.0309C11.4895 13.1398 11.431 13.2406 11.3356 13.2937L10.4671 13.7824C10.4563 13.7887 10.4446 13.7932 10.432 13.7968V11.7439C10.432 11.4784 10.2925 11.2318 10.0639 11.095L6.57913 9.01056V6.69306C6.57913 6.48426 6.74923 6.31506 6.95803 6.31596C7.02463 6.31596 7.09033 6.33396 7.14793 6.36726L11.1142 8.68116ZM12.8512 5.95056C13.0843 6.08556 13.2274 6.33486 13.2274 6.60396V12.004C13.2265 12.1147 13.1653 12.2164 13.0681 12.2695L12.2446 12.7141V8.95476C12.2446 8.68926 12.1051 8.44356 11.8783 8.30676L8.31613 6.17016V3.97236C8.31613 3.90576 8.33413 3.84006 8.36653 3.78246C8.47183 3.60246 8.70313 3.54126 8.88313 3.64566L12.8512 5.95056Z" fill="#00D395"/>
</svg>
