<svg width="50" height="50" viewBox="0 0 50 50" fill="none" xmlns="http://www.w3.org/2000/svg">
<path d="M25 50C38.8075 50 50 38.8075 50 25C50 11.1925 38.8075 0 25 0C11.1925 0 0 11.1925 0 25C0 38.8075 11.1925 50 25 50Z" fill="#070A0E"/>
<path fill-rule="evenodd" clip-rule="evenodd" d="M14.4433 33.3868C13.6958 32.9293 13.2383 32.1168 13.2383 31.2418V26.3568C13.2383 25.7768 13.7108 25.3068 14.2908 25.3093C14.4758 25.3093 14.6583 25.3593 14.8183 25.4518L25.8408 31.8793C26.4858 32.2543 26.8833 32.9443 26.8833 33.6918V38.7519C26.8858 39.4469 26.3233 40.0119 25.6283 40.0119C25.3958 40.0119 25.1658 39.9469 24.9683 39.8269L14.4433 33.3868ZM30.8733 24.1143C31.5183 24.4893 31.9133 25.1818 31.9158 25.9268V36.1968C31.9158 36.4993 31.7533 36.7793 31.4883 36.9268L29.0758 38.2843C29.0458 38.3018 29.0133 38.3144 28.9783 38.3244V32.6218C28.9783 31.8843 28.5908 31.1993 27.9558 30.8193L18.2758 25.0293V18.5918C18.2758 18.0118 18.7483 17.5418 19.3283 17.5443C19.5133 17.5443 19.6958 17.5943 19.8558 17.6868L30.8733 24.1143ZM35.6983 16.5293C36.3458 16.9043 36.7433 17.5968 36.7433 18.3443V33.3443C36.7408 33.6518 36.5708 33.9343 36.3008 34.0818L34.0133 35.3168V24.8743C34.0133 24.1368 33.6258 23.4543 32.9958 23.0743L23.1008 17.1393V11.0343C23.1008 10.8493 23.1508 10.6668 23.2408 10.5068C23.5333 10.0068 24.1758 9.83684 24.6758 10.1268L35.6983 16.5293Z" fill="#00D395"/>
</svg>
