<svg width="72" height="72" viewBox="0 0 72 72" fill="none" xmlns="http://www.w3.org/2000/svg">
<path d="M20.8101 4.20287C20.8101 1.88169 22.6918 0 25.0129 0H59.8873C60.0106 0 60.1288 0.0489628 60.2159 0.136117L71.4936 11.4138C71.5808 11.501 71.6297 11.6192 71.6297 11.7424V67.7916C71.6297 70.1128 69.748 71.9945 67.4268 71.9945H25.0129C22.6917 71.9945 20.8101 70.1128 20.8101 67.7917V4.20287Z" fill="url(#paint0_linear_10123_13413)"/>
<path d="M60.0798 0L71.6298 11.5499H64.2827C61.9615 11.5499 60.0798 9.66823 60.0798 7.34704V0Z" fill="#BC93FF"/>
<path d="M5.99316 39.9075V25.55C5.99316 23.6102 6.37525 21.6894 7.11765 19.8973C7.86004 18.1051 8.9482 16.4768 10.32 15.1052C11.6917 13.7336 13.3202 12.6457 15.1124 11.9035C16.9047 11.1614 18.8255 10.7795 20.7653 10.7798C24.6827 10.7798 28.4395 12.3359 31.2095 15.1059C33.9795 17.8759 35.5356 21.6327 35.5356 25.55V39.9075H30.5029V25.6764C30.5029 23.0939 29.477 20.6171 27.6508 18.791C25.8247 16.9648 23.3479 15.9389 20.7653 15.9389C19.4864 15.9386 18.22 16.1903 17.0383 16.6796C15.8567 17.1688 14.783 17.886 13.8786 18.7903C12.9742 19.6945 12.2568 20.7681 11.7673 21.9496C11.2778 23.1311 11.0259 24.3975 11.0259 25.6764V39.9075H5.99316Z" fill="#DDC1FF"/>
<path d="M37.2041 37.739H4.32165C1.93487 37.739 0 39.6739 0 42.0607V67.6785C0 70.0653 1.93487 72.0001 4.32165 72.0001H37.2041C39.5909 72.0001 41.5258 70.0653 41.5258 67.6785V42.0607C41.5258 39.6739 39.5909 37.739 37.2041 37.739Z" fill="white"/>
<path d="M37.3839 37.7297H4.14191C1.8544 37.7297 0 39.5841 0 41.8716V67.8489C0 70.1365 1.8544 71.9909 4.14191 71.9909H37.3839C39.6714 71.9909 41.5258 70.1365 41.5258 67.8489V41.8716C41.5258 39.5841 39.6714 37.7297 37.3839 37.7297Z" fill="#FFD371"/>
<path d="M25.1008 51.5848C25.1031 50.8348 24.9112 50.097 24.5438 49.4432C24.1765 48.7893 23.6461 48.2417 23.0044 47.8535C22.3627 47.4654 21.6314 47.2499 20.8817 47.2282C20.1321 47.2064 19.3895 47.379 18.7263 47.7292C18.0631 48.0794 17.5019 48.5953 17.0972 49.2267C16.6924 49.8582 16.458 50.5836 16.4167 51.3324C16.3755 52.0813 16.5287 52.8281 16.8615 53.5001C17.1943 54.1722 17.6955 54.7467 18.3162 55.1677C18.4882 55.2888 18.6283 55.4498 18.7243 55.637C18.8203 55.8241 18.8693 56.0319 18.8672 56.2422V60.7357C18.8672 61.2391 19.0672 61.7219 19.4232 62.0779C19.7791 62.4339 20.2619 62.6338 20.7653 62.6338C21.2687 62.6338 21.7516 62.4339 22.1075 62.0779C22.4635 61.7219 22.6635 61.2391 22.6635 60.7357V56.2126C22.662 56.008 22.7103 55.8062 22.8042 55.6245C22.8982 55.4428 23.0349 55.2867 23.2027 55.1697C23.7877 54.7725 24.2665 54.2381 24.5974 53.6132C24.9282 52.9883 25.1011 52.2919 25.1008 51.5848Z" fill="#2C1F66" stroke="#2C1F66" stroke-width="0.508507" stroke-miterlimit="10"/>
<path style="mix-blend-mode:multiply" d="M37.3839 37.7297H4.14191C1.8544 37.7297 0 39.5841 0 41.8716V67.8489C0 70.1365 1.8544 71.9909 4.14191 71.9909H37.3839C39.6714 71.9909 41.5258 70.1365 41.5258 67.8489V41.8716C41.5258 39.5841 39.6714 37.7297 37.3839 37.7297Z" fill="url(#paint1_linear_10123_13413)"/>
<defs>
<linearGradient id="paint0_linear_10123_13413" x1="20.8101" y1="71.9945" x2="71.6297" y2="71.9945" gradientUnits="userSpaceOnUse">
<stop stop-color="#843AF9"/>
<stop offset="1" stop-color="#A973FF"/>
</linearGradient>
<linearGradient id="paint1_linear_10123_13413" x1="36.6886" y1="73.8396" x2="4.83718" y2="35.881" gradientUnits="userSpaceOnUse">
<stop stop-color="#9439FF"/>
<stop offset="0.06" stop-color="#9439FF" stop-opacity="0.86"/>
<stop offset="0.14" stop-color="#9439FF" stop-opacity="0.66"/>
<stop offset="0.24" stop-color="#9439FF" stop-opacity="0.48"/>
<stop offset="0.33" stop-color="#9439FF" stop-opacity="0.33"/>
<stop offset="0.43" stop-color="#9439FF" stop-opacity="0.21"/>
<stop offset="0.53" stop-color="#9439FF" stop-opacity="0.12"/>
<stop offset="0.64" stop-color="#9439FF" stop-opacity="0.05"/>
<stop offset="0.75" stop-color="#9439FF" stop-opacity="0.01"/>
<stop offset="0.9" stop-color="#9439FF" stop-opacity="0"/>
</linearGradient>
</defs>
</svg>
