<svg width="82" height="82" viewBox="0 0 82 82" fill="none" xmlns="http://www.w3.org/2000/svg">
<mask id="mask0_10882_12984" style="mask-type:alpha" maskUnits="userSpaceOnUse" x="0" y="0" width="82" height="82">
<rect width="82" height="82" rx="11.1818" fill="#D9D9D9"/>
</mask>
<g mask="url(#mask0_10882_12984)">
<path d="M31.3354 25.0056L33.8542 70.4677" stroke="#A5A7AF" stroke-width="1.41993"/>
<path d="M-77.2759 103.644C-77.2759 103.644 -30.3102 88.0459 3.08807 72.6186C33.0805 58.7585 46.5854 58.3938 67.1314 66.7074C82.8113 73.052 111.919 81.9484 130.14 87.0123C135.782 88.5859 137.663 90.7307 140.61 90.982L134.061 91.9356L126.59 93.4688L113.551 93.0719L97.505 95.0802L79.5889 94.9535L69.4221 94.3975L54.5538 96.3405L43.8184 98.0547L32.4737 97.5639L22.4412 97.0004L9.80465 98.8198L1.82812 99.2617L-8.74199 100.967L-33.3432 102.33L-46.1241 101.918L-52.3649 103.384L-59.6284 102.667L-63.6784 101.772L-68.0905 103.135L-77.2759 103.644Z" fill="#510DBF"/>
<path d="M8.55466 66.3462C8.55466 66.3462 19.9614 62.3459 27.9024 61.4499C35.8538 60.5534 41.1393 60.1776 44.414 60.3589C47.6985 60.5293 43.9904 68.2383 43.9904 68.2383L41.8086 72.0695L33.9654 70.9909L19.5631 69.5606L-1.79608 75.0036L8.54375 66.3364L8.55466 66.3462Z" fill="#843AF9"/>
</g>
<rect x="29" y="8.52734" width="45.6858" height="26.6501" transform="rotate(-3.17116 29 8.52734)" fill="white"/>
<rect x="30.2637" y="31.3352" width="45.6858" height="3.80715" transform="rotate(-3.17116 30.2637 31.3352)" fill="#3E74B4"/>
<rect x="29.8425" y="23.7327" width="45.6858" height="3.80715" transform="rotate(-3.17116 29.8425 23.7327)" fill="#3E74B4"/>
<rect x="43.6763" y="15.3403" width="31.409" height="3.80715" transform="rotate(-3.17116 43.6763 15.3403)" fill="#3E74B4"/>
<rect x="43.2549" y="7.73755" width="31.409" height="3.80715" transform="rotate(-3.17116 43.2549 7.73755)" fill="#3E74B4"/>
<circle cx="36.021" cy="14.8112" r="3.80715" transform="rotate(-3.17116 36.021 14.8112)" fill="#FFB300"/>
</svg>
