<svg width="50" height="50" viewBox="0 0 50 50" fill="none" xmlns="http://www.w3.org/2000/svg">
<path fill-rule="evenodd" clip-rule="evenodd" d="M25 0C38.805 0 50 11.195 50 25C50 38.805 38.805 50 25 50C11.195 50 0 38.805 0 25C0 11.195 11.195 0 25 0Z" fill="#006AE3"/>
<path d="M23.9688 35.54V14.74H26.2337V35.54H23.9688Z" fill="white"/>
<path d="M35.499 21.6694L28.504 23.5244L26.944 16.2644L29.024 15.7944L29.844 19.2344C29.844 19.2344 31.734 16.1344 29.214 12.9244C27.729 11.2744 27.024 11.2044 25.359 10.9444C23.894 10.7344 20.489 11.2294 19.474 15.2044C19.044 17.7644 19.529 19.6594 22.829 22.1394L22.644 24.8994C22.644 24.8994 18.959 22.3044 18.009 20.4844C17.274 19.0444 16.014 16.1994 18.289 12.2394C19.514 10.2594 21.929 8.35943 26.184 8.55943C28.324 8.64943 33.549 11.2644 32.739 17.3744C32.599 18.5194 32.004 20.0444 32.004 20.0444L34.874 19.4044L35.499 21.6694Z" fill="white"/>
<path d="M31.5058 37.9459C30.2258 39.8909 27.7608 41.7259 23.5158 41.4159C21.3758 41.2709 16.2258 38.5159 17.1958 32.4309C17.3658 31.2909 18.0008 29.7859 18.0008 29.7859L15.1158 30.3459L14.5508 28.0709L21.5958 26.4009L22.9658 33.7009L20.8708 34.1159L20.1408 30.6509C20.1408 30.6509 18.1708 33.6959 20.6008 36.9759C22.0408 38.6659 22.7408 38.7509 24.4058 39.0559C25.8608 39.3059 29.2808 38.8959 30.4008 34.9509C30.8958 32.4059 30.4608 30.4959 27.2308 27.9259L27.4908 25.1709C27.4908 25.1709 31.1058 27.8609 32.0058 29.7059C32.6958 31.1709 33.8808 34.0509 31.5058 37.9459V37.9459Z" fill="white"/>
</svg>
