<svg width="18" height="18" viewBox="0 0 18 18" fill="none" xmlns="http://www.w3.org/2000/svg">
<path fill-rule="evenodd" clip-rule="evenodd" d="M9 0C13.9698 0 18 4.0302 18 9C18 13.9698 13.9698 18 9 18C4.0302 18 0 13.9698 0 9C0 4.0302 4.0302 0 9 0Z" fill="#006AE3"/>
<path d="M8.62891 12.7944V5.3064H9.44431V12.7944H8.62891Z" fill="white"/>
<path d="M12.7796 7.801L10.2614 8.4688L9.69983 5.8552L10.4486 5.686L10.7438 6.9244C10.7438 6.9244 11.4242 5.8084 10.517 4.6528C9.98242 4.0588 9.72863 4.0336 9.12923 3.94C8.60183 3.8644 7.37602 4.0426 7.01062 5.4736C6.85582 6.3952 7.03043 7.0774 8.21842 7.9702L8.15182 8.9638C8.15182 8.9638 6.82523 8.0296 6.48323 7.3744C6.21863 6.856 5.76502 5.8318 6.58402 4.4062C7.02502 3.6934 7.89443 3.0094 9.42623 3.0814C10.1966 3.1138 12.0776 4.0552 11.786 6.2548C11.7356 6.667 11.5214 7.216 11.5214 7.216L12.5546 6.9856L12.7796 7.801Z" fill="white"/>
<path d="M11.3421 13.6605C10.8813 14.3607 9.99388 15.0213 8.46568 14.9097C7.69528 14.8575 5.84128 13.8657 6.19048 11.6751C6.25168 11.2647 6.48028 10.7229 6.48028 10.7229L5.44168 10.9245L5.23828 10.1055L7.77448 9.50432L8.26768 12.1323L7.51348 12.2817L7.25068 11.0343C7.25068 11.0343 6.54148 12.1305 7.41628 13.3113C7.93468 13.9197 8.18668 13.9503 8.78608 14.0601C9.30988 14.1501 10.5411 14.0025 10.9443 12.5823C11.1225 11.6661 10.9659 10.9785 9.80308 10.0533L9.89668 9.06152C9.89668 9.06152 11.1981 10.0299 11.5221 10.6941C11.7705 11.2215 12.1971 12.2583 11.3421 13.6605V13.6605Z" fill="white"/>
</svg>
