<?xml version="1.0" encoding="UTF-8"?>
<svg version="1.1" xmlns="http://www.w3.org/2000/svg" width="180" height="180">
<path d="M0 0 C1.20398438 0.43570312 2.40796875 0.87140625 3.6484375 1.3203125 C27.00042116 10.59018888 44.06779968 28.18915903 54.17480469 50.98193359 C62.30355118 70.86128817 63.3544396 95.76387115 56 116 C55.34644531 117.80597656 55.34644531 117.80597656 54.6796875 119.6484375 C45.40981112 143.00042116 27.81084097 160.06779968 5.01806641 170.17480469 C-14.86128817 178.30355118 -39.76387115 179.3544396 -60 172 C-61.20398437 171.56429687 -62.40796875 171.12859375 -63.6484375 170.6796875 C-87.00042116 161.40981112 -104.06779968 143.81084097 -114.17480469 121.01806641 C-122.30355118 101.13871183 -123.3544396 76.23612885 -116 56 C-115.34644531 54.19402344 -115.34644531 54.19402344 -114.6796875 52.3515625 C-105.40981112 28.99957884 -87.81084097 11.93220032 -65.01806641 1.82519531 C-45.13871183 -6.30355118 -20.23612885 -7.3544396 0 0 Z " fill="#01D474" transform="translate(120,4)"/>
<path d="M0 0 C3.96 0 7.92 0 12 0 C12.33 2.97 12.66 5.94 13 9 C13.66 8.67 14.32 8.34 15 8 C20.55531248 7.4927035 25.41830236 7.23739578 30.5 9.6875 C35.20327938 14.03803342 37.58334047 17.16673234 38.2734375 23.515625 C38.48993838 29.34449493 38.10842049 33.55322814 34.609375 38.33984375 C30.5577634 42.51929747 26.07935656 44.19761412 20.3125 44.4375 C16.52018228 44.27347242 14.05015181 43.36140785 11 41 C11 41.66 11 42.32 11 43 C7.37 43 3.74 43 0 43 C0 28.81 0 14.62 0 0 Z " fill="#F6FDFA" transform="translate(91,66)"/>
<path d="M0 0 C2.87109375 1.52734375 2.87109375 1.52734375 5 3 C5 2.34 5 1.68 5 1 C8.3 1 11.6 1 15 1 C15 12.22 15 23.44 15 35 C11.7 35 8.4 35 5 35 C5 34.34 5 33.68 5 33 C4.195625 33.495 3.39125 33.99 2.5625 34.5 C-2.9451317 36.81900282 -7.612228 36.82653646 -13.25 34.875 C-17.4296989 32.0252053 -20.36864324 28.89407029 -22 24 C-22.63157507 16.33826967 -22.95794684 10.13219741 -18 4 C-12.90641338 -0.96624696 -6.75761181 -1.00954901 0 0 Z " fill="#FBFEFD" transform="translate(155,74)"/>
<path d="M0 0 C4.54554978 1.97543442 7.16392902 4.82427519 10 8.8125 C11 12 11 12 11 21 C2.75 21 -5.5 21 -14 21 C-10.66068273 26.37776766 -10.66068273 26.37776766 -6.1875 26.4375 C-2.24839094 26.1936152 1.26594739 25.2446842 5 24 C9 29.75 9 29.75 9 32 C1.84545981 36.14112921 -4.81036835 37.0461594 -13 36 C-17.91848974 34.4004216 -21.17805957 31.2851688 -24 27 C-26.62325441 21.53258554 -26.18580133 16.843079 -25 11 C-19.49752346 0.19156394 -11.28614257 -1.2979682 0 0 Z " fill="#F8FDFB" transform="translate(77,74)"/>
<path d="M0 0 C3.63 0 7.26 0 11 0 C11.33 0.66 11.66 1.32 12 2 C12.99 1.34 13.98 0.68 15 0 C18.02329256 -0.2610788 20.95876242 -0.08815181 24 0 C23.67 3.63 23.34 7.26 23 11 C21.01432292 11.09765625 19.02864583 11.1953125 17.04296875 11.29296875 C14.82533964 11.87102678 14.82533964 11.87102678 13.28125 13.96875 C11.53605223 18.09763253 11.43520735 21.87049388 11.3125 26.3125 C11.27833984 27.14845703 11.24417969 27.98441406 11.20898438 28.84570312 C11.12694539 30.89667772 11.0617849 32.94831538 11 35 C7.37 35 3.74 35 0 35 C0 23.45 0 11.9 0 0 Z " fill="#F4FDF9" transform="translate(26,74)"/>
<path d="M0 0 C2.9375 2.0625 2.9375 2.0625 5 5 C5.1519185 9.32967714 4.67311337 11.23072758 1.8125 14.5 C-1 16 -1 16 -4.0625 16.0625 C-7.81578187 14.70492996 -9.09483297 13.50550734 -11 10 C-11 6.1862249 -10.84985071 3.97575452 -8.3125 1.0625 C-5.2135552 -0.3613395 -3.37817188 -0.55153827 0 0 Z " fill="#0CD57A" transform="translate(113,84)"/>
<path d="M0 0 C4.99268902 1.47931526 4.99268902 1.47931526 6.375 4 C6.76809578 7.09562931 6.99838668 9.04336605 6.375 12 C4.3125 14.5625 4.3125 14.5625 1.375 16 C-2.4387751 16 -4.64924548 15.84985071 -7.5625 13.3125 C-8.9863395 10.2135552 -9.17653827 8.37817188 -8.625 5 C-5.91953265 1.14675862 -4.77773264 0 0 0 Z " fill="#07D577" transform="translate(152.625,84)"/>
<path d="M0 0 C1.8125 1.125 1.8125 1.125 3 3 C3.3125 6.0625 3.3125 6.0625 3 9 C1 11 1 11 -2.5 11.3125 C-4.2325 11.1578125 -4.2325 11.1578125 -6 11 C-8.15502531 7.76746204 -8.46856135 6.74849077 -8 3 C-5.85607122 -0.27231235 -3.76836426 -0.56525464 0 0 Z " fill="#F4FDF9" transform="translate(18,99)"/>
<path d="M0 0 C7.92 0 15.84 0 24 0 C24 0.33 24 0.66 24 1 C22.02 1 20.04 1 18 1 C17.67 1.99 17.34 2.98 17 4 C12.7114937 6.46913999 8.80722405 6.45783086 4 6 C1.5 4.125 1.5 4.125 0 2 C0 1.34 0 0.68 0 0 Z " fill="#2CDB8B" transform="translate(63,95)"/>
<path d="M0 0 C3.77130907 0.25568197 5.11206772 0.57155043 7.6875 3.25 C7.6875 3.91 7.6875 4.57 7.6875 5.25 C3.0675 5.25 -1.5525 5.25 -6.3125 5.25 C-3.83210784 0.28921569 -3.83210784 0.28921569 0 0 Z " fill="#1DD883" transform="translate(69.3125,82.75)"/>
</svg>
