<?xml version="1.0" encoding="UTF-8"?>
<svg id="logosandtypes_com" data-name="logosandtypes com" xmlns="http://www.w3.org/2000/svg" viewBox="0 0 150 150">
  <defs>
    <style>
      .cls-1 {
        fill: none;
      }

      .cls-2 {
        fill-rule: evenodd;
      }
    </style>
  </defs>
  <path class="cls-1" d="M0,0H150V150H0V0Z"/>
  <path class="cls-2" d="M86.74,105.42c0-1.51-1.26-2.71-2.75-2.63-2.49,.13-6.07,.23-8.51,.23-14.54,0-26.32-11.85-26.32-26.48V13.39c0-.53-.42-.95-.95-.95H12.51c-.32,0-.58,.26-.58,.58v63.5c.05,35.31,28.52,63.93,63.64,63.93,3.54,0,7-.31,10.38-.87,.46-.08,.79-.48,.79-.94v-33.24h0Z"/>
  <path class="cls-2" d="M75.57,12.44c-3.58,0-7.08,.31-10.49,.89-.46,.08-.79,.48-.79,.95V47.6c0,1.5,1.23,2.86,2.69,2.71s8.51-.24,8.51-.24c14.54,0,26.32,11.85,26.32,26.48h.05v57.71c0,.23,.24,.39,.46,.29,21.79-10.16,36.9-32.34,36.9-58.09,0-35.35-28.49-64.01-63.64-64.01Z"/>
</svg>