<?xml version="1.0" encoding="UTF-8"?>
<svg version="1.1" xmlns="http://www.w3.org/2000/svg" width="1200" height="1200">
<path d="M0 0 C396 0 792 0 1200 0 C1200 396 1200 792 1200 1200 C804 1200 408 1200 0 1200 C0 804 0 408 0 0 Z " fill="#FEFEFE" transform="translate(0,0)"/>
<path d="M0 0 C1.9656189 -0.01546875 1.9656189 -0.01546875 3.97094727 -0.03125 C27.19594828 0.1791558 47.13677721 9.14724975 64.375 24.4375 C65.43847656 25.37529297 65.43847656 25.37529297 66.5234375 26.33203125 C83.59380843 42.35658894 92.85098277 65.05364681 93.61328125 88.1875 C94.09780034 115.7349313 87.15966041 137.66281136 68.375 158.4375 C56.78419177 170.35077275 43.9333991 177.94524106 28.375 183.4375 C27.446875 183.77910156 26.51875 184.12070312 25.5625 184.47265625 C4.43136039 190.86896934 -19.74329394 188.82887786 -39.2578125 178.49975586 C-48.43875347 173.42330444 -56.00695228 167.64875877 -63.625 160.4375 C-64.33914063 159.77621094 -65.05328125 159.11492187 -65.7890625 158.43359375 C-77.98367268 146.78044309 -85.4832075 131.67097109 -89.625 115.4375 C-89.80232666 114.7770166 -89.97965332 114.1165332 -90.16235352 113.43603516 C-91.66756418 107.40581425 -91.97410871 101.63796964 -91.9375 95.4375 C-91.93186035 94.43074219 -91.9262207 93.42398438 -91.92041016 92.38671875 C-91.50914639 66.74992007 -82.55030813 45.84467125 -64.625 27.4375 C-63.96757813 26.72980469 -63.31015625 26.02210938 -62.6328125 25.29296875 C-45.79425984 7.60910722 -23.8971982 0.12973621 0 0 Z " fill="#D92D28" transform="translate(830.625,423.5625)"/>
<path d="M0 0 C1.04325735 -0.00679667 1.04325735 -0.00679667 2.10759062 -0.01373065 C4.43755292 -0.02638875 6.7672819 -0.02475342 9.09727478 -0.02310181 C10.76785584 -0.02908601 12.43843414 -0.03589131 14.10900879 -0.04345703 C18.64603352 -0.061131 23.18298283 -0.06581288 27.72003865 -0.0670886 C31.50511964 -0.06898701 35.29018303 -0.0763435 39.07525724 -0.08343279 C48.0015508 -0.09971814 56.92780401 -0.10460145 65.85411072 -0.10317993 C75.07120421 -0.10197709 84.28806407 -0.123107 93.5050984 -0.15466726 C101.41345197 -0.18078435 109.32172898 -0.19154922 117.23012537 -0.19026911 C121.95585909 -0.18975831 126.68138502 -0.19550676 131.40707588 -0.21662521 C135.84848747 -0.23593195 140.28949135 -0.23618437 144.73091698 -0.22159195 C146.36318682 -0.21949359 147.9954817 -0.22426547 149.62770844 -0.23631287 C151.85149336 -0.25166706 154.07385488 -0.24252481 156.29760742 -0.22705078 C157.54328523 -0.22814032 158.78896303 -0.22922985 160.07238865 -0.2303524 C163.08531189 0.26742554 163.08531189 0.26742554 165.00954342 2.13426781 C166.6227133 5.333047 166.10544387 6.82448011 165.08531189 10.26742554 C163.99255949 12.63355056 162.80653933 14.93715628 161.60093689 17.24789429 C159.83576341 20.76459299 158.2669682 24.34235709 156.71031189 27.95492554 C152.70727973 37.20548396 148.43493817 46.31879899 144.11265564 55.42367554 C140.50724599 63.03093305 137.00348558 70.66553317 133.65733337 78.39047241 C129.99519942 86.82158319 126.05434458 95.12051838 122.11265564 103.42367554 C118.818842 110.37347903 115.58142686 117.3354747 112.52281189 124.39242554 C109.18148984 132.08589771 105.77484328 139.73355724 102.08531189 147.26742554 C101.60449158 148.25226929 101.12367126 149.23711304 100.62828064 150.25180054 C100.16035095 151.12320679 99.69242126 151.99461304 99.21031189 152.89242554 C98.82101501 153.62719116 98.43171814 154.36195679 98.03062439 155.11898804 C94.17936626 159.37238557 89.6411964 161.89285093 83.93711662 162.72880554 C80.18523968 162.90234175 76.45040042 162.92143133 72.69639587 162.88265991 C71.2597844 162.8861668 69.82317684 162.89183177 68.38658142 162.8994751 C64.50834049 162.91365024 60.63081479 162.89673468 56.75264239 162.87318993 C52.68181889 162.85299014 48.61102246 162.85896514 44.54016113 162.86129761 C37.70686641 162.86124414 30.87384915 162.84154847 24.04063416 162.80941772 C16.15444869 162.77251467 8.2686262 162.76374533 0.38236564 162.77071524 C-7.22359308 162.77703245 -14.82942812 162.76624438 -22.43536186 162.74674988 C-25.66363737 162.73860177 -28.89184943 162.73586153 -32.12013435 162.73744202 C-35.92471861 162.73832456 -39.72896092 162.72400625 -43.5334549 162.69821548 C-44.9249474 162.69108782 -46.31647637 162.68895358 -47.70798302 162.69233322 C-63.76053927 162.72386984 -63.76053927 162.72386984 -69.93812561 157.58383179 C-70.38414124 157.00504272 -70.83015686 156.42625366 -71.28968811 155.82992554 C-71.75117249 155.2537146 -72.21265686 154.67750366 -72.68812561 154.08383179 C-76.62093581 148.25976572 -77.04846358 143.18246689 -75.91468811 136.26742554 C-73.65038624 129.43945977 -70.26900721 123.02145856 -67.10218811 116.57992554 C-65.78350021 113.83647057 -64.47234863 111.08949134 -63.16120911 108.34242249 C-62.29412187 106.5278469 -61.42422555 104.71461084 -60.5514679 102.90275574 C-56.54621801 94.57439194 -52.84932988 86.13646162 -49.30213928 77.60263062 C-46.28315901 70.52405836 -43.12074756 64.77806988 -35.91468811 61.26742554 C-32.79996273 60.30360424 -29.97481053 60.13851565 -26.72183228 60.12939453 C-25.67179016 60.12394119 -24.62174805 60.11848785 -23.53988647 60.11286926 C-22.39328049 60.11182693 -21.2466745 60.11078461 -20.06532288 60.10971069 C-18.85357391 60.10462997 -17.64182495 60.09954926 -16.39335632 60.09431458 C-13.76059073 60.08361037 -11.1278777 60.07460979 -8.49510384 60.06819534 C-4.33055555 60.05749732 -0.16608796 60.03724858 3.99841309 60.01507568 C15.83959768 59.95320907 27.68077679 59.89912527 39.52207947 59.86605835 C46.0642754 59.84770927 52.60633538 59.81877295 59.14843136 59.77805364 C62.60879959 59.75699435 66.06899661 59.74152787 69.5294323 59.73924637 C73.38861487 59.73669878 77.24746128 59.71123199 81.10655212 59.68392944 C82.82342476 59.68843864 82.82342476 59.68843864 84.57498169 59.69303894 C85.62784363 59.68194595 86.68070557 59.67085297 87.76547241 59.65942383 C89.13345553 59.65445861 89.13345553 59.65445861 90.52907467 59.64939308 C93.63889477 59.18470603 95.53236182 58.0718283 98.08531189 56.26742554 C100.50001411 52.96018296 101.90856978 49.42887367 102.52281189 45.39242554 C102.2649987 42.87942186 102.2649987 42.87942186 99.08531189 41.26742554 C96.71739005 40.96732396 96.71739005 40.96732396 94.03721619 41.01586914 C92.47250076 41.00779488 92.47250076 41.00779488 90.87617493 40.9995575 C89.160186 41.00574348 89.160186 41.00574348 87.40953064 41.01205444 C86.20446869 41.00843399 84.99940674 41.00481354 83.75782776 41.00108337 C81.13696825 40.99418084 78.5163655 40.99080272 75.89552307 40.99303055 C71.75257891 40.9958619 67.60980552 40.98151911 63.46690369 40.96405029 C51.68641211 40.91700408 39.90593229 40.89307609 28.12535095 40.88656616 C21.61869285 40.8828188 15.11222805 40.86481715 8.60565281 40.8314718 C4.48593379 40.81122434 0.36671212 40.8089032 -3.7530365 40.81975198 C-6.91507095 40.82296544 -10.07693752 40.80028126 -13.23890686 40.78158569 C-14.95489578 40.79384438 -14.95489578 40.79384438 -16.70555115 40.80635071 C-17.74869476 40.79532822 -18.79183838 40.78430573 -19.86659241 40.77294922 C-20.77434921 40.77185968 -21.68210602 40.77077015 -22.61737061 40.7696476 C-24.91468811 40.26742554 -24.91468811 40.26742554 -26.73361206 38.43114281 C-28.57971801 35.04909867 -27.81893036 32.97407147 -26.91468811 29.26742554 C-25.70310831 25.85492858 -24.27724846 22.56764221 -22.78968811 19.26742554 C-22.42359436 18.40375366 -22.05750061 17.54008179 -21.68031311 16.65023804 C-17.179271 6.57647713 -11.43735736 0.03076466 0 0 Z " fill="#010101" transform="translate(630.9146881103516,653.7325744628906)"/>
<path d="M0 0 C15.69858789 13.95061597 28.55034499 32.49208773 34 53 C34 54.32 34 55.64 34 57 C27.57811313 57.27974401 21.15780224 57.47185496 14.73120117 57.60424805 C12.54733591 57.65944767 10.36387508 57.73443134 8.18139648 57.82983398 C-9.99253888 58.60416206 -9.99253888 58.60416206 -14.87524414 54.70239258 C-16.66892511 51.85439772 -17.86146185 49.15890972 -19 46 C-29.56957309 31.30308938 -43.74533202 21.30904392 -61.58203125 17.43359375 C-81.12039693 14.9550125 -99.6004895 17.62034265 -116.0078125 29.10546875 C-130.12664237 40.21569003 -141.49371168 54.79704907 -144.6875 72.84765625 C-146.79516741 94.10875124 -144.41001845 114.37072199 -130.9375 131.625 C-129.64711677 133.10293893 -128.33618153 134.56333327 -127 136 C-126.44828125 136.63035156 -125.8965625 137.26070312 -125.328125 137.91015625 C-113.50660487 150.71680306 -96.05063989 157.30431988 -78.94140625 158.28515625 C-61.20179233 158.8854888 -42.98723611 153.44489175 -29.53125 141.58984375 C-24.49325896 136.43523255 -19.09797295 130.53492442 -16.05363464 123.95436096 C-14.90537441 121.61603429 -13.82788594 119.86514409 -12 118 C-8.47642482 116.88734932 -5.11431733 117.06438964 -1.44921875 117.21875 C-0.43527542 117.23006958 0.57866791 117.24138916 1.62333679 117.25305176 C4.85499784 117.29776016 8.08218558 117.39811401 11.3125 117.5 C13.5057952 117.54013408 15.6991601 117.57663497 17.89257812 117.609375 C23.26323936 117.69747512 28.6313002 117.83125208 34 118 C33.6914493 119.43555957 33.38001825 120.87050024 33.06738281 122.30517578 C32.80770721 123.50389816 32.80770721 123.50389816 32.54278564 124.72683716 C26.94672236 148.16290856 7.75878552 171.35473613 -12.0625 184.5 C-39.84040898 201.44529824 -71.76840709 208.16515574 -103.92626953 200.54345703 C-132.10119831 193.32462837 -158.15169498 174.6911387 -173.36035156 149.77099609 C-179.23032773 139.66112649 -184.02634139 129.32535001 -187 118 C-187.25676514 117.09169434 -187.51353027 116.18338867 -187.77807617 115.24755859 C-190.12744817 106.2498748 -190.51829837 97.60048357 -190.4375 88.375 C-190.43412628 87.62743439 -190.43075256 86.87986877 -190.42727661 86.10964966 C-190.28364064 64.11454716 -185.75951541 43.34180341 -173 25 C-172.34 24.04480469 -171.68 23.08960938 -171 22.10546875 C-155.06798191 0.27968046 -134.248444 -17.10863402 -108.125 -24.9375 C-107.46016602 -25.13698242 -106.79533203 -25.33646484 -106.11035156 -25.54199219 C-68.77837158 -35.88433331 -28.6052916 -24.92317438 0 0 Z " fill="#D92D28" transform="translate(321,406)"/>
<path d="M0 0 C2.13703888 -0.00967095 4.27309877 -0.0407804 6.40991211 -0.07226562 C26.36380752 -0.22708963 47.31921469 4.72994966 62.65795898 18.24023438 C73.45343237 29.75199509 75.28091121 44.27154318 75.19750977 59.29711914 C75.19694464 60.69744356 75.19726418 62.09776857 75.19839478 63.49809265 C75.19896534 67.27435157 75.18725934 71.05048176 75.17324686 74.82671094 C75.16068982 78.78249272 75.1595651 82.7382779 75.15719604 86.69407654 C75.15099583 94.17365737 75.13460488 101.65317928 75.11449707 109.13273424 C75.09209251 117.65272418 75.08113321 126.17271702 75.0711062 134.69272912 C75.05023726 152.20860432 75.01357938 169.72439884 74.97045898 187.24023438 C60.12045898 187.24023438 45.27045898 187.24023438 29.97045898 187.24023438 C29.64045898 181.63023437 29.31045898 176.02023437 28.97045898 170.24023438 C26.61920898 171.81804687 26.61920898 171.81804687 24.22045898 173.42773438 C5.5352907 185.30085158 -18.56765619 190.75231919 -40.43457031 186.11108398 C-52.35390953 183.20319474 -62.36756384 178.03385111 -70.02954102 168.24023438 C-76.35391028 157.69509506 -78.39175014 148.84825276 -78.40454102 136.67773438 C-78.4290332 135.47826172 -78.45352539 134.27878906 -78.47875977 133.04296875 C-78.52546597 118.61853495 -74.29953438 105.86640229 -64.52954102 95.11523438 C-47.55341277 79.20011414 -22.94717597 76.18773312 -0.86547852 73.27929688 C0.34325928 73.1156665 1.55199707 72.95203613 2.79736328 72.78344727 C5.15320092 72.46979223 7.51148643 72.17386377 9.87207031 71.89819336 C16.62152466 71.00298566 20.91495119 69.90632204 25.97045898 65.24023438 C28.76178182 61.2185764 28.45757662 56.95968553 27.97045898 52.24023438 C26.43703738 46.48990337 24.1469357 44.17577864 19.20092773 41.28320312 C13.67127039 38.69753148 8.79288191 37.91018232 2.72045898 37.99023438 C1.59329468 38.00256104 1.59329468 38.00256104 0.44335938 38.01513672 C-8.10010188 38.18635575 -15.44914565 38.6991386 -22.27172852 44.33398438 C-27.09550977 49.56510716 -28.87900047 55.33699108 -30.02954102 62.24023438 C-44.87954102 62.24023438 -59.72954102 62.24023438 -75.02954102 62.24023438 C-72.56791242 42.54720559 -69.04608894 27.73127631 -53.84204102 14.42773438 C-37.74662981 1.98328781 -19.59977484 0.05335087 0 0 Z " fill="#D92D28" transform="translate(527.029541015625,422.759765625)"/>
<path d="M0 0 C1.58764341 -0.00650233 3.17527805 -0.01556986 4.76289368 -0.0269928 C9.05219131 -0.04997121 13.34059337 -0.03541821 17.62986159 -0.01252341 C22.12738339 0.00645873 26.62484763 -0.00477562 31.12239075 -0.01142883 C38.67027948 -0.01775842 46.21781119 0.00044738 53.765625 0.03320312 C62.48584594 0.0707344 71.20539205 0.0688979 79.92564887 0.04616195 C88.3272142 0.02520311 96.72853063 0.03248981 105.13009071 0.0524807 C108.70058637 0.06045691 112.27087092 0.05848718 115.84136009 0.04845619 C120.04499442 0.03789363 124.24784315 0.05206379 128.45135307 0.08519936 C129.99203608 0.09339546 131.53279121 0.09313553 133.07346725 0.08372116 C146.16216956 0.01253428 146.16216956 0.01253428 150.10298157 3.17692566 C153.73171454 7.64250875 153.77153786 11.14796971 153.20239258 16.76049805 C152.33307746 19.77118078 151.07050199 22.50883501 149.70239258 25.32299805 C149.34072998 26.1011084 148.97906738 26.87921875 148.60644531 27.6809082 C145.94136149 33.36680535 143.13314905 38.9849295 140.27246094 44.57470703 C137.9819819 49.0818503 135.90943417 53.65463676 133.89501953 58.29125977 C124.17113559 80.61270949 110.98806827 97.99685943 88.63989258 108.76049805 C87.89771484 109.12199951 87.15553711 109.48350098 86.39086914 109.85595703 C73.59443045 115.69859258 61.14316996 116.19293138 47.32598495 116.17118835 C44.19865691 116.16666352 41.0718807 116.18083575 37.9446106 116.19958496 C30.19277628 116.24232903 22.44095752 116.25365971 14.68902588 116.26580811 C8.10526676 116.27731963 1.52176547 116.30079186 -5.06188583 116.34049988 C-8.14367175 116.35408604 -11.22511111 116.34989983 -14.30691528 116.34509277 C-16.18549041 116.35442678 -18.06406165 116.36459392 -19.94262695 116.37573242 C-20.7997377 116.3695842 -21.65684845 116.36343597 -22.53993225 116.35710144 C-26.78114558 116.2558866 -26.78114558 116.2558866 -30.43771172 118.07949066 C-32.6141684 120.76987327 -33.83450877 123.90878169 -35.19604492 127.0612793 C-35.84696486 128.5281302 -36.49801052 129.99492531 -37.14916992 131.46166992 C-38.16143843 133.7642623 -39.17051263 136.06819764 -40.17651367 138.37353516 C-41.15394088 140.60652511 -42.14319346 142.8339976 -43.13354492 145.0612793 C-43.42643402 145.74273514 -43.71932312 146.42419098 -44.02108765 147.126297 C-47.04755943 153.90963244 -50.77565227 158.93787138 -57.66918945 162.05432129 C-61.21218507 163.22983343 -64.53254755 163.25666042 -68.23510742 163.15112305 C-69.00064941 163.14546326 -69.76619141 163.13980347 -70.55493164 163.13397217 C-72.96982763 163.1118064 -75.38316965 163.06165343 -77.79760742 163.01049805 C-79.44732538 162.9904072 -81.0970669 162.97216099 -82.74682617 162.95581055 C-86.76434047 162.91200748 -90.78071168 162.84312407 -94.79760742 162.76049805 C-94.27310476 157.74353322 -93.17891506 153.87346749 -90.98120117 149.3425293 C-90.693423 148.7405925 -90.40564484 148.1386557 -90.10914612 147.51847839 C-89.48585662 146.21616816 -88.85851739 144.91578986 -88.22753906 143.6171875 C-86.49896357 140.0567047 -84.8033774 136.48055944 -83.10620117 132.9050293 C-82.75069183 132.15746368 -82.3951825 131.40989807 -82.02890015 130.63967896 C-78.1322893 122.41408592 -74.46286885 114.09104638 -70.79760742 105.76049805 C-65.48344023 93.7019533 -60.02107422 81.72886348 -54.37841797 69.82064819 C-50.67254255 61.99391908 -47.04808999 54.13854381 -43.54760742 46.2175293 C-43.19170532 45.41233856 -42.83580322 44.60714783 -42.46911621 43.77755737 C-40.74958958 39.88071759 -39.03884046 35.98025218 -37.33862305 32.07495117 C-35.53601041 27.94926876 -33.68471924 23.8481632 -31.79760742 19.76049805 C-31.51385254 19.13641052 -31.23009766 18.512323 -30.93774414 17.86932373 C-30.11773954 16.09420283 -29.25518411 14.33893036 -28.39135742 12.5847168 C-27.91375977 11.59947021 -27.43616211 10.61422363 -26.9440918 9.59912109 C-19.80146524 0.15333868 -11.02433435 -0.10693779 0 0 Z " fill="#000000" transform="translate(419.797607421875,653.239501953125)"/>
<path d="M0 0 C0.77962601 -0.0066568 1.55925201 -0.0133136 2.36250305 -0.02017212 C4.01597737 -0.03030898 5.66949269 -0.03498882 7.32299805 -0.03466797 C9.83647673 -0.03901613 12.3481633 -0.07525164 14.86132812 -0.11328125 C16.4700461 -0.1191545 18.0787724 -0.12312049 19.6875 -0.125 C20.43255295 -0.13937103 21.1776059 -0.15374207 21.94523621 -0.16854858 C27.99143141 -0.11642511 32.43694554 1.64101214 36.76899719 5.90361023 C40.27526704 9.85603179 43.24428471 14.16993178 46.13671875 18.58203125 C46.57214996 19.23800797 47.00758118 19.89398468 47.45620728 20.56983948 C48.82548643 22.63481892 50.18823126 24.70401338 51.55078125 26.7734375 C52.48654743 28.18713483 53.42274172 29.60054889 54.359375 31.01367188 C56.63646384 34.45117796 58.90770923 37.89247613 61.17578125 41.3359375 C63.90442272 40.02484566 66.42588268 38.58481682 68.94140625 36.90234375 C69.65804443 36.42418213 70.37468262 35.94602051 71.11303711 35.45336914 C71.87624268 34.9402417 72.63944824 34.42711426 73.42578125 33.8984375 C74.2257251 33.36275146 75.02566895 32.82706543 75.84985352 32.27514648 C82.94427874 27.51398019 89.98645799 22.67863502 97.01757812 17.82470703 C101.12854157 14.98888632 105.24504781 12.16118676 109.36328125 9.3359375 C110.16564209 8.78365479 110.96800293 8.23137207 111.79467773 7.66235352 C112.55337158 7.14213623 113.31206543 6.62191895 114.09375 6.0859375 C114.76172607 5.62703125 115.42970215 5.168125 116.11791992 4.6953125 C117.13656128 4.02242187 117.13656128 4.02242187 118.17578125 3.3359375 C118.92836716 2.82090668 119.68095306 2.30587585 120.4563446 1.77523804 C123.50620672 0.16105512 125.3193003 -0.04370251 128.74462891 -0.05224609 C129.83570953 -0.06170258 130.92679016 -0.07115906 132.05093384 -0.0809021 C133.21877411 -0.07482941 134.38661438 -0.06875671 135.58984375 -0.0625 C137.39973282 -0.06680527 137.39973282 -0.06680527 139.2461853 -0.07119751 C141.79303457 -0.07323672 144.33989955 -0.06771694 146.88671875 -0.05517578 C150.79332277 -0.0390932 154.69889651 -0.05504479 158.60546875 -0.07421875 C161.07942937 -0.07223684 163.55338935 -0.06839426 166.02734375 -0.0625 C167.19923248 -0.06857269 168.37112122 -0.07464539 169.57852173 -0.0809021 C170.66329803 -0.07144562 171.74807434 -0.06198914 172.86572266 -0.05224609 C174.29871201 -0.04866592 174.29871201 -0.04866592 175.76065063 -0.04501343 C178.60896405 0.40426564 179.49126381 1.03138887 181.17578125 3.3359375 C181.80078125 6.1484375 181.80078125 6.1484375 181.17578125 9.3359375 C176.47905372 14.56777036 169.97181649 18.33309665 164.17578125 22.2109375 C162.21417139 23.53546312 160.25325646 24.86101839 158.29296875 26.1875 C157.28588867 26.86844727 156.27880859 27.54939453 155.24121094 28.25097656 C150.23377773 31.65679685 145.26696806 35.1203668 140.30078125 38.5859375 C133.93895348 43.02208569 127.57308189 47.45107415 121.17578125 51.8359375 C114.46979354 56.43437978 107.78896642 61.06862654 101.11328125 65.7109375 C99.64858398 66.72897461 99.64858398 66.72897461 98.15429688 67.76757812 C97.22166016 68.41662109 96.28902344 69.06566406 95.328125 69.734375 C94.44237793 70.35022461 93.55663086 70.96607422 92.64404297 71.60058594 C90.44753791 73.14487456 88.28074238 74.72265306 86.1171875 76.3125 C83.17578125 78.3359375 83.17578125 78.3359375 81.17578125 78.3359375 C80.91152344 79.18542969 80.64726563 80.03492188 80.375 80.91015625 C79.13508898 84.4521822 77.62186283 87.77837157 75.98828125 91.1484375 C72.14510671 99.18937067 68.45662919 107.29655097 64.78347778 115.41601562 C62.5207485 120.41241645 60.24537178 125.40306954 57.97070312 130.39404297 C56.84326361 132.86797981 55.72000204 135.34365008 54.59960938 137.82080078 C53.26288471 140.7694848 51.91000032 143.71007127 50.55078125 146.6484375 C50.1738916 147.48858398 49.79700195 148.32873047 49.40869141 149.19433594 C46.21012151 156.02928089 42.18600562 159.38806392 35.17578125 162.3359375 C32.34611687 162.72095196 29.56619349 162.68726788 26.71484375 162.62890625 C25.92427582 162.62466141 25.13370789 162.62041656 24.31918335 162.61604309 C21.81269185 162.59935051 19.30702664 162.56171733 16.80078125 162.5234375 C15.09376167 162.50837842 13.3867294 162.49469216 11.6796875 162.48242188 C7.511404 162.44947806 3.34373236 162.39776243 -0.82421875 162.3359375 C-0.24354834 156.98882113 1.58455047 152.8017895 3.8671875 148.01171875 C4.24465622 147.20423691 4.62212494 146.39675507 5.0110321 145.56480408 C5.82430542 143.82699945 6.64084647 142.09072107 7.46032715 140.35583496 C8.7486122 137.62655097 10.02661838 134.89267459 11.30175781 132.15722656 C14.73937036 124.78669685 18.19174167 117.42315298 21.65771484 110.06591797 C23.57050218 106.004206 25.47055085 101.9367573 27.36203003 97.86508179 C28.06834903 96.35175527 28.77984297 94.84083278 29.49661255 93.33242798 C30.49062927 91.24019227 31.46775806 89.14083662 32.44140625 87.0390625 C32.99602539 85.85989258 33.55064453 84.68072266 34.12207031 83.46582031 C35.28849043 80.0011526 35.14592546 78.78021237 34.17578125 75.3359375 C33.08489668 73.18217496 33.08489668 73.18217496 31.65405273 71.11010742 C30.85998772 69.90434555 30.85998772 69.90434555 30.04988098 68.67422485 C29.47138901 67.81364471 28.89289703 66.95306458 28.296875 66.06640625 C27.39705147 64.70786026 27.39705147 64.70786026 26.47904968 63.3218689 C25.19496172 61.3856277 23.90716795 59.45183996 22.61602783 57.52029419 C20.61143824 54.52067967 18.61769554 51.51411105 16.62646484 48.50561523 C11.02547055 40.05392596 5.39809701 31.62236642 -0.34375 23.265625 C-1.10687614 22.14832084 -1.86982594 21.03089622 -2.63256836 19.91333008 C-3.97260984 17.95843673 -5.32557097 16.01231281 -6.69360352 14.0769043 C-7.55876587 12.81487183 -7.55876587 12.81487183 -8.44140625 11.52734375 C-8.93237793 10.82810791 -9.42334961 10.12887207 -9.92919922 9.40844727 C-11.1174026 6.65704014 -10.74496401 5.14726033 -9.82421875 2.3359375 C-6.91777755 -0.5705037 -3.89553812 0.01148092 0 0 Z " fill="#010101" transform="translate(826.82421875,653.6640625)"/>
<path d="M0 0 C14.85 0 29.7 0 45 0 C45 76.89 45 153.78 45 233 C30.15 233 15.3 233 0 233 C0 156.11 0 79.22 0 0 Z " fill="#D92F2A" transform="translate(378,377)"/>
<path d="M0 0 C0 14.85 0 29.7 0 45 C-7.26 45.33 -14.52 45.66 -22 46 C-34.20256107 49.08145482 -44.8258219 56.45827023 -51.3984375 67.30859375 C-56.24487741 76.28711392 -57.29485899 85.3182465 -57.31884766 95.40673828 C-57.33391609 96.88659462 -57.33391609 96.88659462 -57.34928894 98.39634705 C-57.37990365 101.62099687 -57.39709525 104.84556452 -57.4140625 108.0703125 C-57.43279164 110.32047217 -57.45236633 112.57062495 -57.4727478 114.82077026 C-57.52389052 120.71594157 -57.56361152 126.6111356 -57.60089111 132.50640869 C-57.64811441 139.59432603 -57.70963521 146.68213217 -57.76873779 153.7699585 C-57.85673207 164.51326034 -57.92665265 175.25654323 -58 186 C-72.52 186 -87.04 186 -102 186 C-102 127.26 -102 68.52 -102 8 C-88.14 8 -74.28 8 -60 8 C-59.505 18.395 -59.505 18.395 -59 29 C-57.72125 27.515 -56.4425 26.03 -55.125 24.5 C-45.20879789 13.53020142 -34.18500038 6.24803204 -20 2.125 C-19.27683594 1.90948486 -18.55367187 1.69396973 -17.80859375 1.47192383 C-11.45460595 -0.24231729 -7.02590665 0 0 0 Z " fill="#D92D28" transform="translate(734,424)"/>
<path d="M0 0 C0.96977783 0.00902344 1.93955566 0.01804687 2.9387207 0.02734375 C17.73595955 0.38453131 28.22772902 6.02136544 38.5 16.625 C46.69831142 26.37206841 50.75631763 38.76798925 50.5078125 51.40625 C48.99988742 65.67637024 42.74688831 79.09488747 31.796875 88.48828125 C18.81057615 98.0238183 3.9988351 100.28953651 -11.7578125 98.01171875 C-23.9529238 94.81589376 -34.44674794 86.10480814 -41.0625 75.5625 C-41.99730134 73.86402215 -42.91480108 72.15587633 -43.8125 70.4375 C-44.22757813 69.73753906 -44.64265625 69.03757812 -45.0703125 68.31640625 C-50.19934251 58.25561662 -49.42212271 43.26118263 -46.1875 32.6875 C-40.94244716 19.82983576 -30.75028544 8.10656208 -17.83935547 2.59521484 C-11.82958419 0.4193838 -6.36464916 -0.07083515 0 0 Z " fill="#FEFDFD" transform="translate(830.8125,467.5625)"/>
<path d="M0 0 C4.03070124 1.85723377 6.78284024 4.52717467 9.859375 7.6640625 C10.683237 8.49216934 10.683237 8.49216934 11.52374268 9.33700562 C13.27059293 11.09501815 15.01034601 12.8598689 16.75 14.625 C17.93573591 15.8207708 19.1219288 17.01608865 20.30859375 18.2109375 C23.21105085 21.13540253 26.1071641 24.06601874 29 27 C24.03187696 32.99543922 18.65355361 38.48167481 13.13916016 43.97436523 C12.15285096 44.96039184 11.16676293 45.94663971 10.18087769 46.93309021 C7.5223944 49.59185869 4.86085408 52.24754727 2.19872713 54.90266681 C-0.58974547 57.68485956 -3.37535902 60.46991197 -6.1612854 63.25465393 C-11.42897564 68.51924445 -16.69920826 73.78128212 -21.97037375 79.04239279 C-27.9748022 85.03561775 -33.97636854 91.03170534 -39.97770381 97.02802742 C-52.31530175 109.35519177 -64.6564643 121.67878136 -77 134 C-80.82522509 132.2244305 -83.43808436 129.80442419 -86.3515625 126.80859375 C-87.10172134 126.05063255 -87.10172134 126.05063255 -87.86703491 125.27735901 C-89.45786943 123.66876916 -91.04183084 122.05363181 -92.625 120.4375 C-94.21617776 118.81869762 -95.80879701 117.20138179 -97.40438843 115.58692932 C-98.39547098 114.58359573 -99.38386808 113.57760092 -100.36929321 112.56871033 C-102.92858681 109.94828535 -102.92858681 109.94828535 -106 108 C-104.50145783 104.50198578 -102.49540544 102.24842856 -99.81124878 99.57073975 C-98.49451675 98.24988373 -98.49451675 98.24988373 -97.15118408 96.90234375 C-96.17623987 95.93447722 -95.20120004 94.966707 -94.22607422 93.99902344 C-93.20073209 92.97424558 -92.17583042 91.94902688 -91.15133667 90.92340088 C-88.37088049 88.14237082 -85.58430044 85.36755089 -82.79658651 82.59379864 C-79.88353292 79.69324644 -76.97614104 76.78703056 -74.06814575 73.88140869 C-68.56148656 68.38096599 -63.0497489 62.88564148 -57.53617203 57.39213395 C-51.25902584 51.13734145 -44.98755684 44.87686986 -38.71656013 38.61591291 C-25.81735044 25.73760907 -12.9110225 12.86646045 0 0 Z " fill="#D92C27" transform="translate(1010,295)"/>
<path d="M0 0 C13.2 0 26.4 0 40 0 C40 37.95 40 75.9 40 115 C26.8 115 13.6 115 0 115 C0 77.05 0 39.1 0 0 Z " fill="#D92C27" transform="translate(817,272)"/>
<path d="M0 0 C38.61 0 77.22 0 117 0 C117 12.87 117 25.74 117 39 C78.39 39 39.78 39 0 39 C0 26.13 0 13.26 0 0 Z " fill="#D92C27" transform="translate(952,475)"/>
<path d="M0 0 C0.81345886 -0.00540298 1.62691772 -0.01080597 2.46502686 -0.01637268 C5.15153487 -0.02887086 7.83697348 -0.01236218 10.5234375 0.00561523 C12.39143937 0.00546027 14.25944157 0.00397174 16.12744141 0.00120544 C20.04148581 -0.00017904 23.955164 0.01238766 27.86914062 0.03515625 C32.88642848 0.06354102 37.90310779 0.06080421 42.92044067 0.04806614 C46.77747801 0.04111141 50.63437467 0.04889588 54.49139404 0.06132317 C56.34136414 0.06583967 58.19134933 0.06617273 60.0413208 0.06225777 C62.62682047 0.05934757 65.21148132 0.07584297 67.796875 0.09765625 C68.94407013 0.09090378 68.94407013 0.09090378 70.11444092 0.08401489 C73.29471418 0.12859965 75.56020228 0.31762626 78.37841797 1.85142517 C79.8984375 3.50170898 79.8984375 3.50170898 80.3203125 6.31030273 C79.84564371 9.90108419 78.81999503 12.35763204 77.1484375 15.56420898 C76.38273437 17.06661133 76.38273437 17.06661133 75.6015625 18.59936523 C72.92211014 23.16549621 70.12933708 26.68110926 65.7109375 29.62670898 C65.01613281 30.10366211 64.32132812 30.58061523 63.60546875 31.07202148 C54.02680361 36.13088359 44.91704639 35.89755396 34.39453125 35.79467773 C32.70345946 35.7890738 31.01238275 35.78480747 29.32130432 35.78181458 C24.89731097 35.77042852 20.47361897 35.74101601 16.04974365 35.70770264 C11.52474034 35.6768663 6.99968775 35.66328041 2.47460938 35.64819336 C-6.38424607 35.61613954 -15.2428791 35.56501982 -24.1015625 35.50170898 C-23.06010664 28.73581789 -20.55256514 23.11157135 -17.7890625 16.87670898 C-17.30244141 15.74491211 -16.81582031 14.61311523 -16.31445312 13.44702148 C-15.83556641 12.35905273 -15.35667969 11.27108398 -14.86328125 10.15014648 C-14.2129895 8.66780518 -14.2129895 8.66780518 -13.54956055 7.15551758 C-10.12988389 0.88812839 -6.91906051 -0.08746541 0 0 Z " fill="#FAFAFA" transform="translate(433.1015625,693.498291015625)"/>
<path d="M0 0 C0.73166064 35.11971082 0.73166064 35.11971082 -9.4921875 47.859375 C-18.35311263 56.4117107 -30.73426506 59.40823313 -42.63671875 59.2734375 C-48.32329657 58.8111141 -53.52231278 57.46600002 -57.65625 53.3515625 C-63.11590684 46.08260078 -63.84296368 38.91596199 -63 30 C-61.2581771 23.28626491 -56.60321187 18.81415216 -51 15 C-41.92863212 10.75642515 -31.91546995 9.07337232 -22.16845703 7.07275391 C-15.38510139 5.67001802 -6.10700988 0 0 0 Z " fill="#FEFCFC" transform="translate(556,519)"/>
<path d="M0 0 C1.19378265 0.00067978 1.19378265 0.00067978 2.41168213 0.00137329 C3.24581635 -0.00198532 4.07995056 -0.00534393 4.93936157 -0.00880432 C7.71156278 -0.01834477 10.48370378 -0.02025906 13.25592041 -0.02133179 C15.17544582 -0.02454251 17.09497097 -0.02790644 19.01449585 -0.03141785 C23.04468351 -0.03741707 27.07484969 -0.03925696 31.1050415 -0.03866577 C36.27596035 -0.03856417 41.44674182 -0.0522108 46.6176281 -0.06943798 C50.58438757 -0.08054331 54.55111369 -0.08258542 58.51788712 -0.08205605 C60.42451577 -0.0832386 62.33114522 -0.08767568 64.23775864 -0.09538841 C66.90260242 -0.10515762 69.56714628 -0.10232232 72.23199463 -0.09628296 C73.41970459 -0.10471222 73.41970459 -0.10471222 74.63140869 -0.11331177 C78.44329711 -0.09129744 80.20091749 -0.02023999 83.45123291 2.14663696 C84.37658939 7.81444538 82.61861522 11.417473 79.93560791 16.22866821 C78.15410602 18.53055618 77.18551322 19.12811257 74.45123291 20.14663696 C71.74146946 20.34222349 69.13494555 20.43016179 66.42559814 20.42129517 C65.62028656 20.4264061 64.81497498 20.43151703 63.98526001 20.43678284 C61.32670639 20.45066909 58.6684122 20.44972321 56.00982666 20.44741821 C54.16184899 20.45130486 52.31387222 20.45563946 50.46589661 20.46040344 C46.59484967 20.46786296 42.72389394 20.46757571 38.85284424 20.46231079 C33.8870673 20.45650775 28.92166232 20.47346853 23.95594692 20.49665546 C20.14101471 20.51136858 16.32617267 20.51226797 12.51121712 20.50914574 C10.67994511 20.50965988 8.84866817 20.51491504 7.01742363 20.52495766 C4.46052525 20.53726188 1.90435935 20.53056765 -0.65252686 20.51895142 C-1.79108879 20.53041702 -1.79108879 20.53041702 -2.95265198 20.54211426 C-8.04007047 20.49089592 -8.04007047 20.49089592 -10.5110321 18.81867981 C-12.37511445 15.81519086 -11.99482917 13.60361805 -11.54876709 10.14663696 C-7.00142656 0.0414358 -7.00142656 0.0414358 0 0 Z " fill="#FEFEFE" transform="translate(622.5487670898438,754.8533630371094)"/>
<path d="M0 0 C0.33 0 0.66 0 1 0 C1 11.55 1 23.1 1 35 C-10.55 35 -22.1 35 -34 35 C-31.21381889 33.60690945 -28.48324069 32.33849868 -25.625 31.125 C-12.70155562 25.3601302 -6.45374118 16.64836583 -1 4 C-0.31097173 1.73023913 -0.31097173 1.73023913 0 0 Z " fill="#47704C" transform="translate(1199,1165)"/>
<path d="M0 0 C1.39309055 2.78618111 2.66150132 5.51675931 3.875 8.375 C9.75132893 21.54830881 18.30045535 27.13748182 31 33 C32.32 33.66 33.64 34.32 35 35 C23.45 35 11.9 35 0 35 C0 23.45 0 11.9 0 0 Z " fill="#47704C" transform="translate(0,1165)"/>
<path d="M0 0 C11.55 0 23.1 0 35 0 C35 11.55 35 23.1 35 35 C33.60690945 32.21381889 32.33849868 29.48324069 31.125 26.625 C25.24867107 13.45169119 16.69954465 7.86251818 4 2 C2.68 1.34 1.36 0.68 0 0 Z " fill="#47704C" transform="translate(1165,0)"/>
<path d="M0 0 C11.55 0 23.1 0 35 0 C32.21381889 1.39309055 29.48324069 2.66150132 26.625 3.875 C13.45169119 9.75132893 7.86251818 18.30045535 2 31 C1.34 32.32 0.68 33.64 0 35 C0 23.45 0 11.9 0 0 Z " fill="#47704C" transform="translate(0,0)"/>
</svg>
